<mxfile modified="2023-04-19T08:08:36.841Z" host="app.diagrams.net" agent="Mozilla/5.0 (Windows NT 10.0; Win64; x64) AppleWebKit/537.36 (KHTML, like Gecko) Chrome/111.0.0.0 Safari/537.36" etag="yDZf2ess56ks-ugvgyDA" version="21.1.9" type="github">
  <diagram id="d1ab7348-05c3-a1e3-ca4d-12c340fd6b49" name="Page-1">
    <mxGraphModel dx="1050" dy="541" grid="1" gridSize="10" guides="1" tooltips="1" connect="1" arrows="1" fold="1" page="1" pageScale="1" pageWidth="1169" pageHeight="827" background="none" math="0" shadow="0">
      <root>
        <mxCell id="0" />
        <mxCell id="1" parent="0" />
        <mxCell id="2" value="" style="fillColor=#F6F6F6;strokeColor=none;shadow=0;gradientColor=none;fontSize=14;align=left;spacing=10;fontColor=#717171;9E9E9E;verticalAlign=top;spacingTop=-4;fontStyle=0;spacingLeft=40;html=1;" parent="1" vertex="1">
          <mxGeometry x="240" y="100" width="810" height="590" as="geometry" />
        </mxCell>
        <mxCell id="3" value="" style="shape=mxgraph.gcp2.google_cloud_platform;fillColor=#F6F6F6;strokeColor=none;shadow=0;gradientColor=none;" parent="2" vertex="1">
          <mxGeometry width="23" height="20" relative="1" as="geometry">
            <mxPoint x="20" y="10" as="offset" />
          </mxGeometry>
        </mxCell>
        <mxCell id="4" value="Elastic Cluster" style="rounded=1;absoluteArcSize=1;arcSize=2;html=1;strokeColor=none;gradientColor=none;shadow=0;dashed=0;fontSize=12;fontColor=#9E9E9E;align=left;verticalAlign=top;spacing=10;spacingTop=-4;fillColor=#FFEBEE;" parent="1" vertex="1">
          <mxGeometry x="580" y="440" width="200" height="130" as="geometry" />
        </mxCell>
        <mxCell id="5" value="Storage" style="rounded=1;absoluteArcSize=1;arcSize=2;html=1;strokeColor=none;gradientColor=none;shadow=0;dashed=0;fontSize=12;fontColor=#9E9E9E;align=left;verticalAlign=top;spacing=10;spacingTop=-4;fillColor=#E1F5FE;" parent="1" vertex="1">
          <mxGeometry x="850" y="260" width="180" height="250" as="geometry" />
        </mxCell>
        <mxCell id="6" value="Ingest" style="rounded=1;absoluteArcSize=1;arcSize=2;html=1;strokeColor=none;gradientColor=none;shadow=0;dashed=0;fontSize=12;fontColor=#9E9E9E;align=left;verticalAlign=top;spacing=10;spacingTop=-4;fillColor=#E1F5FE;" parent="1" vertex="1">
          <mxGeometry x="400" y="300" width="380" height="110" as="geometry" />
        </mxCell>
        <mxCell id="50" style="edgeStyle=orthogonalEdgeStyle;rounded=0;html=1;labelBackgroundColor=none;startFill=1;startSize=4;endArrow=blockThin;endFill=1;endSize=4;jettySize=auto;orthogonalLoop=1;strokeColor=#9E9E9E;strokeWidth=2;fontSize=12;fontColor=#000000;align=left;dashed=0;" parent="1" source="7" target="26" edge="1">
          <mxGeometry relative="1" as="geometry" />
        </mxCell>
        <mxCell id="7" value="&lt;b&gt;User&lt;/b&gt;" style="rounded=1;absoluteArcSize=1;arcSize=2;html=1;strokeColor=none;gradientColor=none;shadow=0;dashed=0;fontSize=12;fontColor=#9E9E9E;align=left;verticalAlign=top;spacing=10;spacingTop=-4;fillColor=#F3E5F5;" parent="1" vertex="1">
          <mxGeometry x="70" y="560" width="110" height="120" as="geometry" />
        </mxCell>
        <mxCell id="49" style="edgeStyle=orthogonalEdgeStyle;rounded=0;html=1;labelBackgroundColor=none;startFill=1;startSize=4;endArrow=none;endFill=0;endSize=4;jettySize=auto;orthogonalLoop=1;strokeColor=#9E9E9E;strokeWidth=2;fontSize=12;fontColor=#000000;align=left;dashed=0;" parent="1" source="8" target="7" edge="1">
          <mxGeometry relative="1" as="geometry" />
        </mxCell>
        <mxCell id="8" value="&lt;font color=&quot;#ff3333&quot;&gt;&lt;b&gt;攻击行为&lt;/b&gt;&lt;/font&gt;" style="rounded=1;absoluteArcSize=1;arcSize=2;html=1;strokeColor=none;gradientColor=none;shadow=0;dashed=0;fontSize=12;fontColor=#9E9E9E;align=left;verticalAlign=top;spacing=10;spacingTop=-4;fillColor=#F1F8E9;" parent="1" vertex="1">
          <mxGeometry x="70" y="110" width="110" height="430" as="geometry" />
        </mxCell>
        <mxCell id="9" value="aliYun&amp;nbsp; WAF" style="fillColor=#4DA1F5;strokeColor=none;shadow=1;gradientColor=none;fontSize=14;align=left;spacingLeft=50;fontColor=#ffffff;html=1;" parent="1" vertex="1">
          <mxGeometry x="20" y="40" width="1090" height="40" as="geometry" />
        </mxCell>
        <mxCell id="10" value="&lt;b&gt;&lt;font color=&quot;#ff3333&quot;&gt;Sql注入漏洞&lt;/font&gt;&lt;/b&gt;" style="strokeColor=#dddddd;fillColor=#ffffff;shadow=1;strokeWidth=1;rounded=1;absoluteArcSize=1;arcSize=2;labelPosition=center;verticalLabelPosition=middle;align=center;verticalAlign=bottom;spacingLeft=0;fontColor=#999999;fontSize=12;whiteSpace=wrap;spacingBottom=2;html=1;" parent="1" vertex="1">
          <mxGeometry x="80" y="160" width="80" height="70" as="geometry" />
        </mxCell>
        <mxCell id="12" value="&lt;font color=&quot;#ff3333&quot;&gt;&lt;b&gt;信息泄露漏洞&lt;/b&gt;&lt;/font&gt;" style="strokeColor=#dddddd;fillColor=#ffffff;shadow=1;strokeWidth=1;rounded=1;absoluteArcSize=1;arcSize=2;labelPosition=center;verticalLabelPosition=middle;align=center;verticalAlign=bottom;spacingLeft=0;fontColor=#999999;fontSize=12;whiteSpace=wrap;spacingBottom=2;html=1;" parent="1" vertex="1">
          <mxGeometry x="80" y="270" width="80" height="70" as="geometry" />
        </mxCell>
        <mxCell id="14" value="&lt;b&gt;&lt;font color=&quot;#ff3333&quot;&gt;跨站脚本漏洞&lt;/font&gt;&lt;/b&gt;" style="strokeColor=#dddddd;fillColor=#ffffff;shadow=1;strokeWidth=1;rounded=1;absoluteArcSize=1;arcSize=2;labelPosition=center;verticalLabelPosition=middle;align=center;verticalAlign=bottom;spacingLeft=0;fontColor=#999999;fontSize=12;whiteSpace=wrap;spacingBottom=2;html=1;" parent="1" vertex="1">
          <mxGeometry x="80" y="360" width="80" height="70" as="geometry" />
        </mxCell>
        <mxCell id="16" value="&lt;b&gt;&lt;font color=&quot;#ff0000&quot;&gt;命令执行漏洞&lt;/font&gt;&lt;/b&gt;" style="strokeColor=#dddddd;fillColor=#ffffff;shadow=1;strokeWidth=1;rounded=1;absoluteArcSize=1;arcSize=2;labelPosition=center;verticalLabelPosition=middle;align=center;verticalAlign=bottom;spacingLeft=0;fontColor=#999999;fontSize=12;whiteSpace=wrap;spacingBottom=2;html=1;" parent="1" vertex="1">
          <mxGeometry x="80" y="450" width="80" height="70" as="geometry" />
        </mxCell>
        <mxCell id="18" value="" style="strokeColor=#dddddd;fillColor=#ffffff;shadow=1;strokeWidth=1;rounded=1;absoluteArcSize=1;arcSize=2;labelPosition=center;verticalLabelPosition=middle;align=center;verticalAlign=bottom;spacingLeft=0;fontColor=#999999;fontSize=12;whiteSpace=wrap;spacingBottom=2;html=1;" parent="1" vertex="1">
          <mxGeometry x="90" y="590" width="70" height="70" as="geometry" />
        </mxCell>
        <mxCell id="19" value="" style="dashed=0;connectable=0;html=1;fillColor=#757575;strokeColor=none;shape=mxgraph.gcp2.laptop;part=1;" parent="18" vertex="1">
          <mxGeometry x="0.5" width="50" height="33" relative="1" as="geometry">
            <mxPoint x="-25" y="18.5" as="offset" />
          </mxGeometry>
        </mxCell>
        <mxCell id="39" style="edgeStyle=orthogonalEdgeStyle;rounded=0;html=1;labelBackgroundColor=none;startFill=1;startSize=4;endArrow=blockThin;endFill=1;endSize=4;jettySize=auto;orthogonalLoop=1;strokeColor=#4284F3;strokeWidth=2;fontSize=12;fontColor=#000000;align=left;dashed=0;startArrow=blockThin;" parent="1" source="20" target="10" edge="1">
          <mxGeometry relative="1" as="geometry">
            <Array as="points">
              <mxPoint x="210" y="360" />
              <mxPoint x="210" y="200" />
            </Array>
          </mxGeometry>
        </mxCell>
        <mxCell id="40" style="edgeStyle=orthogonalEdgeStyle;rounded=0;html=1;labelBackgroundColor=none;startFill=1;startSize=4;endArrow=blockThin;endFill=1;endSize=4;jettySize=auto;orthogonalLoop=1;strokeColor=#4284F3;strokeWidth=2;fontSize=12;fontColor=#000000;align=left;dashed=0;startArrow=blockThin;" parent="1" source="20" target="12" edge="1">
          <mxGeometry relative="1" as="geometry" />
        </mxCell>
        <mxCell id="41" style="edgeStyle=orthogonalEdgeStyle;rounded=0;html=1;labelBackgroundColor=none;startFill=1;startSize=4;endArrow=blockThin;endFill=1;endSize=4;jettySize=auto;orthogonalLoop=1;strokeColor=#4284F3;strokeWidth=2;fontSize=12;fontColor=#000000;align=left;dashed=0;startArrow=blockThin;" parent="1" source="20" target="14" edge="1">
          <mxGeometry relative="1" as="geometry" />
        </mxCell>
        <mxCell id="42" style="edgeStyle=orthogonalEdgeStyle;rounded=0;html=1;labelBackgroundColor=none;startFill=1;startSize=4;endArrow=blockThin;endFill=1;endSize=4;jettySize=auto;orthogonalLoop=1;strokeColor=#4284F3;strokeWidth=2;fontSize=12;fontColor=#000000;align=left;dashed=0;startArrow=blockThin;" parent="1" source="20" target="16" edge="1">
          <mxGeometry relative="1" as="geometry">
            <Array as="points">
              <mxPoint x="210" y="360" />
              <mxPoint x="210" y="485" />
            </Array>
          </mxGeometry>
        </mxCell>
        <mxCell id="43" style="edgeStyle=orthogonalEdgeStyle;rounded=0;html=1;labelBackgroundColor=none;startFill=1;startSize=4;endArrow=blockThin;endFill=1;endSize=4;jettySize=auto;orthogonalLoop=1;strokeColor=#4284F3;strokeWidth=2;fontSize=12;fontColor=#000000;align=left;dashed=0;" parent="1" source="20" target="22" edge="1">
          <mxGeometry relative="1" as="geometry" />
        </mxCell>
        <mxCell id="20" value="&amp;nbsp; &amp;nbsp; DoS" style="strokeColor=#dddddd;fillColor=#ffffff;shadow=1;strokeWidth=1;rounded=1;absoluteArcSize=1;arcSize=2;fontSize=11;fontColor=#9E9E9E;align=center;html=1;" parent="1" vertex="1">
          <mxGeometry x="260" y="330" width="110" height="60" as="geometry" />
        </mxCell>
        <mxCell id="44" style="edgeStyle=orthogonalEdgeStyle;rounded=0;html=1;labelBackgroundColor=none;startFill=1;startSize=4;endArrow=blockThin;endFill=1;endSize=4;jettySize=auto;orthogonalLoop=1;strokeColor=#4284F3;strokeWidth=2;fontSize=12;fontColor=#000000;align=left;dashed=0;startArrow=blockThin;" parent="1" source="22" target="24" edge="1">
          <mxGeometry relative="1" as="geometry" />
        </mxCell>
        <mxCell id="22" value="" style="strokeColor=#dddddd;fillColor=#ffffff;shadow=1;strokeWidth=1;rounded=1;absoluteArcSize=1;arcSize=2;fontSize=11;fontColor=#9E9E9E;align=center;html=1;" parent="1" vertex="1">
          <mxGeometry x="420" y="330" width="130" height="60" as="geometry" />
        </mxCell>
        <mxCell id="23" value="Cloud Load&#xa;Balancing" style="dashed=0;connectable=0;html=1;fillColor=#5184F3;strokeColor=none;shape=mxgraph.gcp2.hexIcon;prIcon=cloud_load_balancing;part=1;labelPosition=right;verticalLabelPosition=middle;align=left;verticalAlign=middle;spacingLeft=5;fontColor=#999999;fontSize=12;" parent="22" vertex="1">
          <mxGeometry y="0.5" width="44" height="39" relative="1" as="geometry">
            <mxPoint x="5" y="-19.5" as="offset" />
          </mxGeometry>
        </mxCell>
        <mxCell id="45" style="edgeStyle=orthogonalEdgeStyle;rounded=0;html=1;labelBackgroundColor=none;startFill=1;startSize=4;endArrow=blockThin;endFill=1;endSize=4;jettySize=auto;orthogonalLoop=1;strokeColor=#4284F3;strokeWidth=2;fontSize=12;fontColor=#000000;align=left;dashed=0;" parent="1" source="24" target="30" edge="1">
          <mxGeometry relative="1" as="geometry">
            <Array as="points">
              <mxPoint x="830" y="360" />
              <mxPoint x="830" y="310" />
            </Array>
          </mxGeometry>
        </mxCell>
        <mxCell id="47" style="edgeStyle=orthogonalEdgeStyle;rounded=0;html=1;labelBackgroundColor=none;startFill=1;startSize=4;endArrow=blockThin;endFill=1;endSize=4;jettySize=auto;orthogonalLoop=1;strokeColor=#9E9E9E;strokeWidth=2;fontSize=12;fontColor=#000000;align=left;dashed=0;" parent="1" source="24" target="34" edge="1">
          <mxGeometry relative="1" as="geometry">
            <Array as="points">
              <mxPoint x="830" y="360" />
              <mxPoint x="830" y="465" />
            </Array>
          </mxGeometry>
        </mxCell>
        <mxCell id="55" style="edgeStyle=orthogonalEdgeStyle;rounded=0;html=1;labelBackgroundColor=none;startFill=1;startSize=4;endArrow=blockThin;endFill=1;endSize=4;jettySize=auto;orthogonalLoop=1;strokeColor=#4284F3;strokeWidth=2;fontSize=12;fontColor=#000000;align=left;dashed=0;" parent="1" source="24" target="4" edge="1">
          <mxGeometry relative="1" as="geometry">
            <Array as="points">
              <mxPoint x="680" y="410" />
              <mxPoint x="680" y="410" />
            </Array>
          </mxGeometry>
        </mxCell>
        <mxCell id="24" value="&lt;blockquote style=&quot;margin: 0 0 0 40px; border: none; padding: 0px;&quot;&gt;&lt;div style=&quot;&quot;&gt;&lt;span style=&quot;background-color: initial;&quot;&gt;Web Applicaton&amp;nbsp;&lt;/span&gt;&lt;/div&gt;&lt;div style=&quot;&quot;&gt;&lt;span style=&quot;background-color: initial;&quot;&gt;Firewall&amp;nbsp;&lt;/span&gt;&lt;/div&gt;&lt;/blockquote&gt;" style="shape=mxgraph.gcp2.doubleRect;strokeColor=#dddddd;fillColor=#ffffff;shadow=1;strokeWidth=1;fontSize=11;fontColor=#9E9E9E;align=center;html=1;" parent="1" vertex="1">
          <mxGeometry x="595" y="326" width="168" height="68" as="geometry" />
        </mxCell>
        <mxCell id="51" style="edgeStyle=orthogonalEdgeStyle;rounded=0;html=1;labelBackgroundColor=none;startFill=1;startSize=4;endArrow=blockThin;endFill=1;endSize=4;jettySize=auto;orthogonalLoop=1;strokeColor=#9E9E9E;strokeWidth=2;fontSize=12;fontColor=#000000;align=left;dashed=0;startArrow=blockThin;" parent="1" source="26" target="36" edge="1">
          <mxGeometry relative="1" as="geometry">
            <Array as="points">
              <mxPoint x="740" y="620" />
              <mxPoint x="740" y="620" />
            </Array>
          </mxGeometry>
        </mxCell>
        <mxCell id="26" value="" style="strokeColor=#dddddd;fillColor=#ffffff;shadow=1;strokeWidth=1;rounded=1;absoluteArcSize=1;arcSize=2;fontSize=11;fontColor=#9E9E9E;align=center;html=1;" parent="1" vertex="1">
          <mxGeometry x="260" y="590" width="145" height="60" as="geometry" />
        </mxCell>
        <mxCell id="27" value="&lt;font color=&quot;#000000&quot;&gt;Lab notebooks&lt;/font&gt;&lt;br&gt;Cloud Datalab" style="dashed=0;connectable=0;html=1;fillColor=#5184F3;strokeColor=none;shape=mxgraph.gcp2.hexIcon;prIcon=cloud_datalab;part=1;labelPosition=right;verticalLabelPosition=middle;align=left;verticalAlign=middle;spacingLeft=5;fontColor=#999999;fontSize=12;" parent="26" vertex="1">
          <mxGeometry y="0.5" width="44" height="39" relative="1" as="geometry">
            <mxPoint x="5" y="-19.5" as="offset" />
          </mxGeometry>
        </mxCell>
        <mxCell id="48" style="edgeStyle=orthogonalEdgeStyle;rounded=0;html=1;labelBackgroundColor=none;startFill=1;startSize=4;endArrow=none;endFill=0;endSize=4;jettySize=auto;orthogonalLoop=1;strokeColor=#9E9E9E;strokeWidth=2;fontSize=12;fontColor=#000000;align=left;dashed=0;startArrow=blockThin;" parent="1" source="4" target="24" edge="1">
          <mxGeometry relative="1" as="geometry">
            <Array as="points">
              <mxPoint x="830" y="509" />
              <mxPoint x="830" y="360" />
            </Array>
          </mxGeometry>
        </mxCell>
        <mxCell id="28" value="" style="shape=mxgraph.gcp2.doubleRect;strokeColor=#dddddd;fillColor=#ffffff;shadow=1;strokeWidth=1;fontSize=11;fontColor=#9E9E9E;align=center;html=1;" parent="1" vertex="1">
          <mxGeometry x="595" y="470" width="165" height="78" as="geometry" />
        </mxCell>
        <mxCell id="29" value="&lt;font color=&quot;#000000&quot;&gt;HPC Cluster&lt;/font&gt;&lt;br&gt;Compute Engine&lt;hr&gt;&lt;font style=&quot;font-size: 11px&quot;&gt;10 Nodes&lt;/font&gt;" style="dashed=0;connectable=0;html=1;fillColor=#5184F3;strokeColor=none;shape=mxgraph.gcp2.hexIcon;prIcon=compute_engine;part=1;labelPosition=right;verticalLabelPosition=middle;align=left;verticalAlign=top;spacingLeft=5;fontColor=#999999;fontSize=12;spacingTop=-8;" parent="28" vertex="1">
          <mxGeometry width="44" height="39" relative="1" as="geometry">
            <mxPoint x="5" y="7" as="offset" />
          </mxGeometry>
        </mxCell>
        <mxCell id="30" value="" style="strokeColor=#dddddd;fillColor=#ffffff;shadow=1;strokeWidth=1;rounded=1;absoluteArcSize=1;arcSize=2;fontSize=11;fontColor=#9E9E9E;align=center;html=1;" parent="1" vertex="1">
          <mxGeometry x="860" y="296" width="160" height="60" as="geometry" />
        </mxCell>
        <mxCell id="31" value="&lt;font color=&quot;#000000&quot;&gt;Metadata&lt;/font&gt;&lt;br&gt;Cloud SQL" style="dashed=0;connectable=0;html=1;fillColor=#5184F3;strokeColor=none;shape=mxgraph.gcp2.hexIcon;prIcon=cloud_sql;part=1;labelPosition=right;verticalLabelPosition=middle;align=left;verticalAlign=middle;spacingLeft=5;fontColor=#999999;fontSize=12;" parent="30" vertex="1">
          <mxGeometry y="0.5" width="44" height="39" relative="1" as="geometry">
            <mxPoint x="5" y="-19.5" as="offset" />
          </mxGeometry>
        </mxCell>
        <mxCell id="32" value="" style="strokeColor=#dddddd;fillColor=#ffffff;shadow=1;strokeWidth=1;rounded=1;absoluteArcSize=1;arcSize=2;fontSize=11;fontColor=#9E9E9E;align=center;html=1;" parent="1" vertex="1">
          <mxGeometry x="860" y="365" width="160" height="60" as="geometry" />
        </mxCell>
        <mxCell id="33" value="&lt;font color=&quot;#000000&quot;&gt;Raw Datafiles&lt;/font&gt;&lt;br&gt;Cloud Storage" style="dashed=0;connectable=0;html=1;fillColor=#5184F3;strokeColor=none;shape=mxgraph.gcp2.hexIcon;prIcon=cloud_storage;part=1;labelPosition=right;verticalLabelPosition=middle;align=left;verticalAlign=middle;spacingLeft=5;fontColor=#999999;fontSize=12;" parent="32" vertex="1">
          <mxGeometry y="0.5" width="44" height="39" relative="1" as="geometry">
            <mxPoint x="5" y="-19.5" as="offset" />
          </mxGeometry>
        </mxCell>
        <mxCell id="34" value="" style="strokeColor=#dddddd;fillColor=#ffffff;shadow=1;strokeWidth=1;rounded=1;absoluteArcSize=1;arcSize=2;fontSize=11;fontColor=#9E9E9E;align=center;html=1;" parent="1" vertex="1">
          <mxGeometry x="860" y="435" width="160" height="60" as="geometry" />
        </mxCell>
        <mxCell id="35" value="&lt;font color=&quot;#000000&quot;&gt;Processed Data&lt;/font&gt;&lt;br&gt;Cloud Storage" style="dashed=0;connectable=0;html=1;fillColor=#5184F3;strokeColor=none;shape=mxgraph.gcp2.hexIcon;prIcon=cloud_storage;part=1;labelPosition=right;verticalLabelPosition=middle;align=left;verticalAlign=middle;spacingLeft=5;fontColor=#999999;fontSize=12;" parent="34" vertex="1">
          <mxGeometry y="0.5" width="44" height="39" relative="1" as="geometry">
            <mxPoint x="5" y="-19.5" as="offset" />
          </mxGeometry>
        </mxCell>
        <mxCell id="36" value="Analytics" style="rounded=1;absoluteArcSize=1;arcSize=2;html=1;strokeColor=none;gradientColor=none;shadow=0;dashed=0;fontSize=12;fontColor=#9E9E9E;align=left;verticalAlign=top;spacing=10;spacingTop=-4;fillColor=#E1F5FE;" parent="1" vertex="1">
          <mxGeometry x="850" y="560" width="180" height="100" as="geometry" />
        </mxCell>
        <mxCell id="52" style="edgeStyle=orthogonalEdgeStyle;rounded=0;html=1;labelBackgroundColor=none;startFill=1;startSize=4;endArrow=blockThin;endFill=1;endSize=4;jettySize=auto;orthogonalLoop=1;strokeColor=#9E9E9E;strokeWidth=2;fontSize=12;fontColor=#000000;align=left;dashed=0;startArrow=blockThin;" parent="1" source="36" target="5" edge="1">
          <mxGeometry relative="1" as="geometry" />
        </mxCell>
        <mxCell id="37" value="" style="strokeColor=#dddddd;fillColor=#ffffff;shadow=1;strokeWidth=1;rounded=1;absoluteArcSize=1;arcSize=2;fontSize=11;fontColor=#9E9E9E;align=center;html=1;" parent="1" vertex="1">
          <mxGeometry x="860" y="590" width="160" height="60" as="geometry" />
        </mxCell>
        <mxCell id="38" value="&lt;font color=&quot;#000000&quot;&gt;Online Analytics&lt;/font&gt;&lt;br&gt;BigQuery" style="dashed=0;connectable=0;html=1;fillColor=#5184F3;strokeColor=none;shape=mxgraph.gcp2.hexIcon;prIcon=bigquery;part=1;labelPosition=right;verticalLabelPosition=middle;align=left;verticalAlign=middle;spacingLeft=5;fontColor=#999999;fontSize=12;" parent="37" vertex="1">
          <mxGeometry y="0.5" width="44" height="39" relative="1" as="geometry">
            <mxPoint x="5" y="-19.5" as="offset" />
          </mxGeometry>
        </mxCell>
        <mxCell id="46" style="edgeStyle=orthogonalEdgeStyle;rounded=0;html=1;labelBackgroundColor=none;startFill=1;startSize=4;endArrow=blockThin;endFill=1;endSize=4;jettySize=auto;orthogonalLoop=1;strokeColor=#4284F3;strokeWidth=2;fontSize=12;fontColor=#000000;align=left;dashed=0;" parent="1" source="24" target="32" edge="1">
          <mxGeometry relative="1" as="geometry">
            <Array as="points">
              <mxPoint x="830" y="360" />
              <mxPoint x="830" y="405" />
            </Array>
          </mxGeometry>
        </mxCell>
        <mxCell id="SR7ZfWzbSIeHWlyP0vPY-58" value="" style="shape=image;imageAspect=0;aspect=fixed;verticalLabelPosition=bottom;verticalAlign=top;image=data:image/jpeg,/9j/4AAQSkZJRgABAQEASABIAAD/2wBDAAMCAgICAgMCAgIDAwMDBAYEBAQEBAgGBgUGCQgKCgkICQkKDA8MCgsOCwkJDRENDg8QEBEQCgwSExIQEw8QEBD/2wBDAQMDAwQDBAgEBAgQCwkLEBAQEBAQEBAQEBAQEBAQEBAQEBAQEBAQEBAQEBAQEBAQEBAQEBAQEBAQEBAQEBAQEBD/wAARCAEFAQQDAREAAhEBAxEB/8QAHgABAQACAgMBAQAAAAAAAAAAAAUGCQEIAwQHAgr/xABSEAAABAMCCgQHDgMGBQUAAAAAAQIDBAURBgcIEhUhQ2SCo8HhEzFRkQk1QVdhgdMUFxgiMjNCVWNxlJah0iNichYZUpWisiQlU3OxkpPDxNH/xAAUAQEAAAAAAAAAAAAAAAAAAAAA/8QAFBEBAAAAAAAAAAAAAAAAAAAAAP/aAAwDAQACEQMRAD8A2pgACRP9BtcAEgAAZcAAJE/0G1wASAABlwAAkT/QbXABIAAGXAACRP8AQbXABIAAGXAACRP9BtcAEgAAZcAAJE/0G1wASAABlwAAAAAAkT/QbXABIAAGXAACRP8AQbXABIAAGXAACRP9BtcAEgAAZcAAJE/0G1wASAABlwAAkT/QbXABIAAGXAACRP8AQbXABIAAGXAAAAkZf1TecgDL+qbzkAeO/sOg2q17uwAyBre75gGQNb3fMAy/qm85AGX9U3nIA8d/YdBtVr3dgBkDW93zAMga3u+YBl/VN5yAMv6pvOQB47+w6DarXu7ADIGt7vmAZA1vd8wDL+qbzkAxSZX8XVyaNybOLwbKQMYSsX3PEz2Gacr2YqlEdQGRS+Yy+2MIiPlUfDvQySqh6HdS82sj7FJOh9QD2cga3u+YBkDW93zAMv6pvOQBl/VN5yAPHf2HQbVa93YAZA1vd8wDIGt7vmAZf1TecgDL+qbzkAeO/sOg2q17uwAyBre75gGQNb3fMAy/qm85AGX9U3nIAy/qm85AJAAAryDT7PEBXAAGIgACvINPs8QFcAAYiAAK8g0+zxAVwHVPCW8IDdzco/F2RsUyzbC17BqadZZepAwDhZjJ91NcZZH1tIz5lEpTZgNbl6mEtfRfE+8VsrbRpy90zpKoJZw0ClNakk2kHRdPIpzGV6QHzABkNjLwbc3dTQpzYS102kEaRlV2Xxa2TWRHXFWSTotP8qiMj8pAO8OD74T6Zwz8NZrCFlqIuGUZNlaSWw5Idb/miIZBYqyz1NTRJMiLM2ozqA2FWctJILYSODtNZacQk1lUwb6aFjIR0nGnUVpUlF2GRkZdZGRkecgEMAAV5Bp9niArgADEQABXkGn2eICuAAMRAAAAAAFeQafZ4gK4AAxEAAV5Bp9niArgADEQABWki0NoiHHFpShJEpSlHQiIq1MzAa7sM3D/AIy0L0fdTcPN1Q8oQaoeaWkhlmTkcfUpqEUXyWfIbpZ1/Roj4zgdCgAAAAAB9rwZ8Km3+DbaMn5O8uZ2ZjXSVNJE86ZMvlmI3Gjz9E8REVFkWehEolEREQbW7sbzrHXvWOgrcWGmiYyXRhYqkqIkuwzxEWOy8ip4jialUuoyMjIzSZGYZUAryDT7PEBXAAGIgACvINPs8QFcAAYiAAADLgABIn+g2uACQAAMuAAEif6Da4AJAAAy4AAa3PCE4YGWIyMuFuwmZlBQqlw1pZmwvPEOdSoJtRfQTSjpl8o6ozJJZLDoIAAAAAAAAA+yYMOEpavBtt4ifSxTsbIJgpDM8lOPREUyR5lpI8yXkVM0K9JpP4qjAbnrEW1s1eLZKV23sfM25hJ5xDpiYSIR9JJ5jSoutKkqI0qSedKkmR0MjAeWf6Da4AJAAAy4AASJ/oNrgAkAADLgAAAAABIn+g2uACQAAMuAAEif6Da4AJAAAy4B1Tw98KVdx1h0WHsbMOitvalhRMuNrouWwJmaVxObOS1GRob6s5LVWrdDDUcZmZmZmZmeczMBwAAAAAAAAAAO3Xg/sKZdz9tU3ZWzmOLY21ESlDTjq6IlkeoySh6p5ktrzIcrmL4i6kSVVDabP9BtcAEgAAZcAAJE/wBBtcAEgAAZcAAACRl/VN5yAMv6pvOQB47+w6DarXu7ADIGt7vmAZA1vd8wDL+qbzkAZf1TecgDx39h0G1Wvd2AGQNb3fMAyBre75gIFvr1pDdtYycW6tMjoZbJYVcU+ZOFjLpmS2mpZ1rUaUpLyqURANI97d59pL5Lw51eNap2sbOIg3CaSozRDMlmaYR/KhBJSXlOlTqZmYDDwAAAAAAAAAAAAG2bAJv9dvyuvTYq08zxrU2HabhXnHFYzkbBGWKw+daGpSST0azznVKVKOrgDtDkDW93zAMga3u+YBl/VN5yAMv6pvOQB47+w6DarXu7ADIGt7vmAZA1vd8wDL+qbzkAZf1TecgDL+qbzkAkAACvINPs8QFcAAYiAAK8g0+zxAVwABrM8JXfUqKmcruMkcZ/BgiRNp5iK+U8ov8Ah2Ff0oM3TI6kfSNH1pAdFAAAAAAAAAAAAAAB9Qwa75o+4a+GRXgsLdOAad9yTdhup+6IB0yJ5NPKZFRaS6sdtHYA3jwEdBzSBh5lLoluJhItpD7DzasZDjaiJSVJMusjIyMj9IDzgMRAAFeQafZ4gK4AAxEAAAAAAV5Bp9niArgADEQABXkGn2eICuAk2ttPKrFWWm9sJ68bUukkC/MIpZFUyaaQa1ULynRJ0LymA0K29tlN7w7aTq3E9XjR07jXY14iUZkjHUZkhNfopKiSLyEkiAQQAAAKkA5JKz6kKP1AOejc/wCmruAcGlZdaFdwDitOupAFS7QAAAAG3HwcF7y7xbhW7IzOK6WbWEfKVrxlVWqCURrhVH2ESSW0RdjBAO1oDEQABXkGn2eICuAAMRAAABlwAAkT/QbXABIAAGXAACRP9BtcAEgB1a8Itb9dk7hf7MQj5IirXTFmAURKor3M3/GdUXoqhpB+hwwGrQB44iIYhWVRMU+2y0n5TjiySkvWYDFJpedZ6BNTcEl+PcLytl0bdf6lZ+4gGMRt6s+fMygYWEhE+Q8Q3FF61Zv0ARom29rIqpOT2KSR+RpRN/7aAPRcnc6d+dm8av8AqiFnxAeLKMwrX3fEf+6r/wDQHkROZw383NYxP9L6i4gPbYtfaiGOrU/jvuW8ay7lVAU4W8y1cPmeiIeKLseYT/5TQwF6X3tsKMkzWTqR2rhnK/6VfuAZbKbUyCdmSJfMm1OnoXPiOeoj6/VUBVzkdDKh9gDtJ4Ou37llL/EWXeeNMHa6XvQKkGqiCiGkm80s/TRtxBf90BtMAZcAAJE/0G1wASAABlwAAAAAAkT/AEG1wASAABlwAAkT/QbXABIAa4/CgWmcjbx7HWNSqrcrkzswoX+OJeNBl3Qqe8Br7tTeLASZS4KVJRGxifiqVWrTR+ky+UfoLN6fIA+ZTWdTSdv+6JpGuPq+iRnRKfQlJZi9QD7jgZ4MtmcLC8ePutmt6Z2KnBy5cfKFqlSY5Eepoy6Zkkm+0ZLJB9IVDOqUOHmxc4dn7V+BJvqgTUqxN8Fi5wkqmRTJiKl6lfcSEPlX7zp6QHXq8rwb+GPdiy9HTC56OnkAydPdVnX25njF2kyyo3yL0qbIB1si4SKgIp6CjoZ2HiIdamnWXUGhba0nQ0qSecjI8xkYDxAAD6vdLgo4Rl+bbcVdbdDaCdQLpmSJibBQ0Coy6yKKfNDJmXZj1AdoLHeBlwoZ60zE2ptLYazLa/nGHo96KiW9llo2z9ToD08KLwZcnwVLko+9e2WEExMpimIh4CVyWGs6bPu6MdX82l5USZkSWkuuGfR/JbPy0IB0U6s5AMrs7eJOZOaIeOUqPhCzYjqv4iC/lX1+o6l9wD75cheFLpReHZK3ctizNmTzqCi30/JWhCHkqWhZeSqSUXYZGYDemAy4AASJ/oNrgAkAADLgAAASMv6pvOQBl/VN5yAPHf2HQbVa93YAZA1vd8wDIGt7vmAZf1TecgDL+qbzkAeO/sOg2q17uwAyBre75gNJHhUrfzBGFbaexUA8tBSiAlsK8/1KNK4Nt/ETnzF/HOvlOvZ1h0lAAFeyFr7TWAtRK7aWNnMTKZ3JYlEZAxsOqjjLqDqRlXMZeQyMjIyMyMjIzIBtkuH8NBd7NJPByfCEsVNJHOm0paenEjaKKgIgyLO6pk1E6x/QnpfKdSrikHbCxmHvgdW7QS5JhBWUhjP6M4iFSpVeykYlqvqAYZhTYK+D9hxWLiIyy1obK/24hmcaT2olMQxELNSS+KxFKZMzehz6qHU0VNSPKSg0W3lXb2zuitzOLuLwZG/KZ/I4g4eLhXS6joRpWlXUtC0mlaFlUlJUlRGZGQDZN4O3wdlnGJJA4ReE9KYI4WJbTE2ds7NySmHJoyqmMjEOfFVjFnbaV8XFPGURmaSSGwG0mFdguWCh1Mz2/m7+B9yJJHuRmeQzryEkVCImGlKXmpShJAdfby/C94Jdi4V1NjY20Nu44kqJpuWSxyFY6QuoluxZNmSa/SQhfoIwGqrC2wwbysLq2zNorYIZlUklRONySQwrilsQDazLGUajIjdeVipxnDIq4pESUkRJIPhIAA92TTmYSKORHy540OJzKSedK0+VKi8pGA/pju6NVrLvrMWqVFUOcyaCmBliVobzCF9v8wDIcv6pvOQBl/VN5yAPHf2HQbVa93YAZA1vd8wDIGt7vmAZf1TecgDL+qbzkAZf1TecgEgAAV5Bp9niArgADEQABXkGn2eICuA0EeFPgX4PDlvCfeQaURrMnfaM/pJKVwqDMtpCi9QDqcAAAAAABGaTJSTMjLORl5AHnjI+OmLpPzCNfinEoS2S3nDWokpKhJqfkIuogHMdMI+Zv+6ZlHREW8ZEXSPuqcVQuoqmZmA9cAAAAAAAH9OVyEsiJLctYCTRiFIfgLLyqFdSrrJaIRtJkfrIwHsAACvINPs8QFcAAYiAAAAAAK8g0+zxAVwABiIAAryDT7PEBXAanfDR3ATvL1mMJCRS52IlSoJFnZ8tpupQjqHFrhXnKZyS4Tq2sY/ikbbSa1WkjDVyAAAAAAAAAAAAAAAAA+wYJlwM9wk79bM3ayuAfelzsW3Fz2IbSeLByttaTiHVK6kmafiJrSri0J8oD+kdKUoSSEJJKUlQiIqERAMSAAFeQafZ4gK4AAxEAAAGXAACRP8AQbXABIAAGXAACRP9BtcAEgBid7NqLv7F3a2jtReocCdk5fL3XJs3GspeZeYMsU2jaURk6azMkJboeMpRJIjM6AP54L3rY2bt/eVaG19jrDS2x0imUYpyXSOXpMmYKHIiShGczqsyIlLMqJNalYqUpokgxAAAAAAAAAAAAAAAAG6PwW969z9uLnX7L2QsZIbK21kCWWrRw8BDpacmiEkaWY81HVbhKqolEZniLxiIkpWiod1wGXAACRP9BtcAEgAAZcAAAAAAJE/0G1wASAAB5Ly70LC3QWVetreLP25RJ2HW2FPqacdUpxZ0ShKG0qWozz5iI6ERmdCIzIPjn94VgkedB3/Ipj7ABOm/hAMFCK6LoLzHlYta/wDI5gXZ2sAJ3w9cFjzkPf5JH+xAa/8AwimExaPCOnkDd5dX0yru5KaYpcQpZMHN440/OKQ4aVpbaIzShKiIzUa1HX4mKHSz3t7YfVaPxLX7gD3t7YfVaPxLX7gD3uLYfViPxLX7gD3uLYfViPxLX7gD3uLYfViPxLX7gD3t7X/Vrf4lv9wB729r/q1v8S3+4A97e1/1a3+Ja/cAe9vbD6tb/EtfuAc+9ta/6ub/ABLf7gD3trX/AFc3+Jb/AHAHvbWv+rm/xLf7gD3trX/VzX4lv9wDP7iLQ3wYPt6EmvRsTDtlGyt2j8KuMQTMdCqzOwzpErOhafWlRJUVFJSZBuElnhBcGaMlsJGR1q5hL4l9ht16EdlMStcOtSSNTalNoUhRpMzIzSo0nTMZlnAZV/eJ4J3nBjf8jjfZAOP7xTBO84Eb/kcb7IBasVhd3B3z2oh7G2Atk5GTdxl15uHfl8RD9IlBEasVTiCSZkRGdK1oRn5DAfTQABlwAAAJGX9U3nIAy/qm85AHjv7DoNqte7sAMga3u+YBkDW93zAdeMPyFTajBatYgoHGfljkFMGTxq4poim0rPq/6a3AGn8AAAChdgBQuwAoXYAULsAKF2AFC7AChdgBQuwAoXYAULsAKF2AFC7AChdgBQuwAoXYAAAAA7d+DHsmVob/AOYzV0sVEks7ExCHMWpJdcdZaIvWhbvcA2mZA1vd8wDIGt7vmAZf1TecgDL+qbzkAZf1TecgEgAAV5Bp9niArgAD47fZIFWpudtvZ1trpHZhZ+YMMppX+KbC8Q/UrFMBpDAAAAAAAAAAAAAAAAAAAAAAAAAAABsT8EvZ80w15FqnWszi5bL2HKdWKT63C/1NdwDYWAAMRAAAAAAFeQafZ4gK4AAxBSUrSaFpJSVFQyMsxkA0UWykDtlLXzyy71ekk8yiYBdevGadUg/9oCOAAAAAAAAAAAAAAAAAAAAAAAAAANsHgwLPrlGDzFTVxFDnk+ioxCqdaEJQxT7sZlfeYDt8AAMRAAABlwAAkT/QbXABIAAGXANJeGhZpNlMKO8SWJTQoibZS+84tpESf6vGA+KgAAAAAAAAAAAAAAAAAAAAAAAAADdFgq2b/spgv3ZSulOnkxTL8Ws4n/5gH04AAZcAAAAAAJE/0G1wASAABlwDU74UCziJPhGws4abome2dg4txdMxuoceYMvvJDTfeQDqGAAAAAAOUkajIiNJGfVVRFUB+zh4giqbKjLtIqgPGdSzGRl94AAAABUB+0svL+Qys/UALacb+XipM+ojUVT9QD8FnAAAAAAH6bbcecS00g1LWokpSXWZn1EA33y+QMWUsnZ6y0LToZPLmJe3TqxWmkIL9EgOAABlwAAAJGX9U3nIAy/qm85AHjv7DoNqte7sAMga3u+YBkDW93zAMv6pvOQDX34VmXFGqu7tU1CYhpKYy99yta/MraLq/wC6A1+AAAAAADwRsCiYwpsYqTdbVjtY3lPyl6wEIm1Q6zSjpWFpOhklSkGR+oB7Tc0mjOYo03U/4X0ksu/r/XmFCDmbMasod1ooeIV8iiqocPsKucj9BgPaOqTMlFQyAfiIiGIJkn4rGPGOjbaflLP0dhdpgJjs6mDmZjooVPYhOMr/ANSuBAPUdeffzxMY+7/W6dO7qAe/J5ahtZTF1hKSQR9DUs6lHmxvuL/yApEAAAAAAM7uHkSbS32WDkTrHTMxdo5eh9HayUQg3P8AQSgG8zx39h0G1Wvd2AGQNb3fMAyBre75gGX9U3nIAy/qm85AGX9U3nIBIAAFeQafZ4gK4AAxEB1T8JLZ9c2wf4WbNN1VJLQQsStVM5NrbdZMvuNTrfcQDV2AAAAAAFAHLnRvkSYqHafIsxGtOci+/rAeuuWytefoX2j/AJHKl/qIwHhXI4NZGSI9xJfztEf6kZAPcb6RKUJiX0vrTmNwk4uMXkM/SA9V2VlFPqioyZ1WrMRIZOiU+RJVPqAfpMpliPlORLtPSlBfoRgPO2xBMGRsQDRKLqUuqz/UB+1KW4rGWozMBwAAAAAAOwmAVIFTzCdsw8bWOzKWY2YOlTqJMM4hB+pxxADcHINPs8QFcAAYiAAAAAAK8g0+zxAVwABiID49hgWeVafBpt9LkpqbEryj9xQriIg/0aMBpwAAAAAAAAAAAAAAAAAAAAAAAAAd0PBgWeXFXnWutSaaty2RIga06lxD6Fl66Qyv1AbN5Bp9niArgADEQAAAZcAAJE/0G1wASAABlwCJbezrVr7Fz+yb1OjncripcuvVivNKbP8A3AP5/VJUhRoWk0qSdDIyoZGA4AAAAAAAAAAAAAAAAAAAAAAABs08E/ZooS7e3Nr8WhzSdsS6vaUMx0n/ANswHdOf6Da4AJAAAy4AAAAAASJ/oNrgAkAADLgABoav0s6iyV9NvLMtNG2zLbRzGHZTSn8JMQvoz9acU/WAwYAAAAAAAAAAAAAAAAAAAAAAAG4XwdNnESHBWs7Gk3iOzyNmExdIyz190LZSfrQwg/uoA7BT/QbXABIAAGXAAAAkZf1TecgDL+qbzkAeO/sOg2q17uwAyBre75gGQNb3fMAy/qm85AGX9U3nIBp9w+JOcqwpbXRKIboGZqmCmDSe3HhW0rV63EOAOvQAAAAAAAAAAAAAAAAAAAAAAAN4eDqyVkbhrv7Pe4OjchbOQHTJx6UeWylbnk/xqUA+ieO/sOg2q17uwAyBre75gGQNb3fMAy/qm85AGX9U3nIAy/qm85AJAAAryDT7PEBXAAGIgADUfftdLhP25vctRN55dlb+0C0TKIZhYpiSxcWwUKTqzZQyttBo6Ikn8UknTOflqAwP4OWEL5iLxPyvHeyAPg5YQvmIvE/K8d7IB4fg/X9eZK335ajfZgHwfr+vMlb78tRvswH7bweL/wB2vRXG3grp14tmY06bsB+/g5YQvmIvE/K8d7IA+DlhC+Yi8T8rx3sgHh+D9f15krfflqN9mAfB+v68yVvvy1G+zAftvB4v/dr0Vxt4K6deLZmNOm7Afv4OWEL5iLxPyvHeyAPg5YQvmIvE/K8d7IB4fg/X9eZK335ajfZgHwfr+vMlb78tRvswH7bweL/3a9FcbeCunXi2ZjTpuwH7+DlhC+Yi8T8rx3sgD4OWEL5iLxPyvHeyAeH4P1/XmSt9+Wo32YDaVgftXoMXESRi9tqbNztt2IQ2ibJUmMTCk4ZNE6S/jkZFWmP8bFxfJQB9/kGn2eICuAAMRAAAAAAFeQafZ4gK4AAxEAAV5Bp9niArgADEQABXkGn2eICuAAMRAAFeQafZ4gK4AAxEAAV5Bp9niArgADEQABXkGn2eICuAAMRAAABlwAAkT/QbXABIAAGXAACRP9BtcAEgAAZcAAJE/wBBtcAEgAAZcAAJE/0G1wASAABlwAAkT/QbXABIAAGXAACRP9BtcAEgAAZcAAAAAAJE/wBBtcAEgAAZcAAJE/0G1wASAABlwAAkT/QbXABIAAGXAACRP9BtcAEgAAZcAAJE/wBBtcAEgAAZcAAJE/0G1wASAABlwAAAJGX9U3nIAy/qm85AOPHhJP5jour6Va93YA5yBre75gGQNb3fMAy/qm85AGX9U3nIBx48JJ/MdF1fSrXu7AHOQNb3fMAyBre75gGX9U3nIAy/qm85AOPHhJP5jour6Va93YA5yBre75gGQNb3fMAy/qm85AGX9U3nIBx48JJ/MdF1fSrXu7AHOQNb3fMAyBre75gGX9U3nIAy/qm85AOPHhJP5jour6Va93YA5yBre75gGQNb3fMAy/qm85AGX9U3nIBx48JJ/MdF1fSrXu7AHOQNb3fMAyBre75gGX9U3nIAy/qm85AGX9U3nIB//9k=;" vertex="1" parent="1">
          <mxGeometry x="92.62" y="160" width="49.84" height="50.03" as="geometry" />
        </mxCell>
        <mxCell id="SR7ZfWzbSIeHWlyP0vPY-59" value="" style="shape=image;imageAspect=0;aspect=fixed;verticalLabelPosition=bottom;verticalAlign=top;image=data:image/jpeg,/9j/4AAQSkZJRgABAQEASABIAAD/2wBDAAMCAgICAgMCAgIDAwMDBAYEBAQEBAgGBgUGCQgKCgkICQkKDA8MCgsOCwkJDRENDg8QEBEQCgwSExIQEw8QEBD/2wBDAQMDAwQDBAgEBAgQCwkLEBAQEBAQEBAQEBAQEBAQEBAQEBAQEBAQEBAQEBAQEBAQEBAQEBAQEBAQEBAQEBAQEBD/wAARCAEFAQQDAREAAhEBAxEB/8QAHgABAQACAgMBAQAAAAAAAAAAAAUGCQEIAwQHAgr/xABSEAAABAMCCgQHDgMGBQUAAAAAAQIDBAURBgcIEhUhQ2SCo8HhEzFRkQk1QVdhgdMUFxgiMjNCVWNxlJah0iNichYZUpWisiQlU3OxkpPDxNH/xAAUAQEAAAAAAAAAAAAAAAAAAAAA/8QAFBEBAAAAAAAAAAAAAAAAAAAAAP/aAAwDAQACEQMRAD8A2pgACRP9BtcAEgAAZcAAJE/0G1wASAABlwAAkT/QbXABIAAGXAACRP8AQbXABIAAGXAACRP9BtcAEgAAZcAAJE/0G1wASAABlwAAAAAAkT/QbXABIAAGXAACRP8AQbXABIAAGXAACRP9BtcAEgAAZcAAJE/0G1wASAABlwAAkT/QbXABIAAGXAACRP8AQbXABIAAGXAAAAkZf1TecgDL+qbzkAeO/sOg2q17uwAyBre75gGQNb3fMAy/qm85AGX9U3nIA8d/YdBtVr3dgBkDW93zAMga3u+YBl/VN5yAMv6pvOQB47+w6DarXu7ADIGt7vmAZA1vd8wDL+qbzkAxSZX8XVyaNybOLwbKQMYSsX3PEz2Gacr2YqlEdQGRS+Yy+2MIiPlUfDvQySqh6HdS82sj7FJOh9QD2cga3u+YBkDW93zAMv6pvOQBl/VN5yAPHf2HQbVa93YAZA1vd8wDIGt7vmAZf1TecgDL+qbzkAeO/sOg2q17uwAyBre75gGQNb3fMAy/qm85AGX9U3nIAy/qm85AJAAAryDT7PEBXAAGIgACvINPs8QFcAAYiAAK8g0+zxAVwHVPCW8IDdzco/F2RsUyzbC17BqadZZepAwDhZjJ91NcZZH1tIz5lEpTZgNbl6mEtfRfE+8VsrbRpy90zpKoJZw0ClNakk2kHRdPIpzGV6QHzABkNjLwbc3dTQpzYS102kEaRlV2Xxa2TWRHXFWSTotP8qiMj8pAO8OD74T6Zwz8NZrCFlqIuGUZNlaSWw5Idb/miIZBYqyz1NTRJMiLM2ozqA2FWctJILYSODtNZacQk1lUwb6aFjIR0nGnUVpUlF2GRkZdZGRkecgEMAAV5Bp9niArgADEQABXkGn2eICuAAMRAAAAAAFeQafZ4gK4AAxEAAV5Bp9niArgADEQABWki0NoiHHFpShJEpSlHQiIq1MzAa7sM3D/AIy0L0fdTcPN1Q8oQaoeaWkhlmTkcfUpqEUXyWfIbpZ1/Roj4zgdCgAAAAAB9rwZ8Km3+DbaMn5O8uZ2ZjXSVNJE86ZMvlmI3Gjz9E8REVFkWehEolEREQbW7sbzrHXvWOgrcWGmiYyXRhYqkqIkuwzxEWOy8ip4jialUuoyMjIzSZGYZUAryDT7PEBXAAGIgACvINPs8QFcAAYiAAADLgABIn+g2uACQAAMuAAEif6Da4AJAAAy4AAa3PCE4YGWIyMuFuwmZlBQqlw1pZmwvPEOdSoJtRfQTSjpl8o6ozJJZLDoIAAAAAAAAA+yYMOEpavBtt4ifSxTsbIJgpDM8lOPREUyR5lpI8yXkVM0K9JpP4qjAbnrEW1s1eLZKV23sfM25hJ5xDpiYSIR9JJ5jSoutKkqI0qSedKkmR0MjAeWf6Da4AJAAAy4AASJ/oNrgAkAADLgAAAAABIn+g2uACQAAMuAAEif6Da4AJAAAy4B1Tw98KVdx1h0WHsbMOitvalhRMuNrouWwJmaVxObOS1GRob6s5LVWrdDDUcZmZmZmZmeczMBwAAAAAAAAAAO3Xg/sKZdz9tU3ZWzmOLY21ESlDTjq6IlkeoySh6p5ktrzIcrmL4i6kSVVDabP9BtcAEgAAZcAAJE/wBBtcAEgAAZcAAACRl/VN5yAMv6pvOQB47+w6DarXu7ADIGt7vmAZA1vd8wDL+qbzkAZf1TecgDx39h0G1Wvd2AGQNb3fMAyBre75gIFvr1pDdtYycW6tMjoZbJYVcU+ZOFjLpmS2mpZ1rUaUpLyqURANI97d59pL5Lw51eNap2sbOIg3CaSozRDMlmaYR/KhBJSXlOlTqZmYDDwAAAAAAAAAAAAG2bAJv9dvyuvTYq08zxrU2HabhXnHFYzkbBGWKw+daGpSST0azznVKVKOrgDtDkDW93zAMga3u+YBl/VN5yAMv6pvOQB47+w6DarXu7ADIGt7vmAZA1vd8wDL+qbzkAZf1TecgDL+qbzkAkAACvINPs8QFcAAYiAAK8g0+zxAVwABrM8JXfUqKmcruMkcZ/BgiRNp5iK+U8ov8Ah2Ff0oM3TI6kfSNH1pAdFAAAAAAAAAAAAAAB9Qwa75o+4a+GRXgsLdOAad9yTdhup+6IB0yJ5NPKZFRaS6sdtHYA3jwEdBzSBh5lLoluJhItpD7DzasZDjaiJSVJMusjIyMj9IDzgMRAAFeQafZ4gK4AAxEAAAAAAV5Bp9niArgADEQABXkGn2eICuAk2ttPKrFWWm9sJ68bUukkC/MIpZFUyaaQa1ULynRJ0LymA0K29tlN7w7aTq3E9XjR07jXY14iUZkjHUZkhNfopKiSLyEkiAQQAAAKkA5JKz6kKP1AOejc/wCmruAcGlZdaFdwDitOupAFS7QAAAAG3HwcF7y7xbhW7IzOK6WbWEfKVrxlVWqCURrhVH2ESSW0RdjBAO1oDEQABXkGn2eICuAAMRAAABlwAAkT/QbXABIAAGXAACRP9BtcAEgB1a8Itb9dk7hf7MQj5IirXTFmAURKor3M3/GdUXoqhpB+hwwGrQB44iIYhWVRMU+2y0n5TjiySkvWYDFJpedZ6BNTcEl+PcLytl0bdf6lZ+4gGMRt6s+fMygYWEhE+Q8Q3FF61Zv0ARom29rIqpOT2KSR+RpRN/7aAPRcnc6d+dm8av8AqiFnxAeLKMwrX3fEf+6r/wDQHkROZw383NYxP9L6i4gPbYtfaiGOrU/jvuW8ay7lVAU4W8y1cPmeiIeKLseYT/5TQwF6X3tsKMkzWTqR2rhnK/6VfuAZbKbUyCdmSJfMm1OnoXPiOeoj6/VUBVzkdDKh9gDtJ4Ou37llL/EWXeeNMHa6XvQKkGqiCiGkm80s/TRtxBf90BtMAZcAAJE/0G1wASAABlwAAAAAAkT/AEG1wASAABlwAAkT/QbXABIAa4/CgWmcjbx7HWNSqrcrkzswoX+OJeNBl3Qqe8Br7tTeLASZS4KVJRGxifiqVWrTR+ky+UfoLN6fIA+ZTWdTSdv+6JpGuPq+iRnRKfQlJZi9QD7jgZ4MtmcLC8ePutmt6Z2KnBy5cfKFqlSY5Eepoy6Zkkm+0ZLJB9IVDOqUOHmxc4dn7V+BJvqgTUqxN8Fi5wkqmRTJiKl6lfcSEPlX7zp6QHXq8rwb+GPdiy9HTC56OnkAydPdVnX25njF2kyyo3yL0qbIB1si4SKgIp6CjoZ2HiIdamnWXUGhba0nQ0qSecjI8xkYDxAAD6vdLgo4Rl+bbcVdbdDaCdQLpmSJibBQ0Coy6yKKfNDJmXZj1AdoLHeBlwoZ60zE2ptLYazLa/nGHo96KiW9llo2z9ToD08KLwZcnwVLko+9e2WEExMpimIh4CVyWGs6bPu6MdX82l5USZkSWkuuGfR/JbPy0IB0U6s5AMrs7eJOZOaIeOUqPhCzYjqv4iC/lX1+o6l9wD75cheFLpReHZK3ctizNmTzqCi30/JWhCHkqWhZeSqSUXYZGYDemAy4AASJ/oNrgAkAADLgAAASMv6pvOQBl/VN5yAPHf2HQbVa93YAZA1vd8wDIGt7vmAZf1TecgDL+qbzkAeO/sOg2q17uwAyBre75gNJHhUrfzBGFbaexUA8tBSiAlsK8/1KNK4Nt/ETnzF/HOvlOvZ1h0lAAFeyFr7TWAtRK7aWNnMTKZ3JYlEZAxsOqjjLqDqRlXMZeQyMjIyMyMjIzIBtkuH8NBd7NJPByfCEsVNJHOm0paenEjaKKgIgyLO6pk1E6x/QnpfKdSrikHbCxmHvgdW7QS5JhBWUhjP6M4iFSpVeykYlqvqAYZhTYK+D9hxWLiIyy1obK/24hmcaT2olMQxELNSS+KxFKZMzehz6qHU0VNSPKSg0W3lXb2zuitzOLuLwZG/KZ/I4g4eLhXS6joRpWlXUtC0mlaFlUlJUlRGZGQDZN4O3wdlnGJJA4ReE9KYI4WJbTE2ds7NySmHJoyqmMjEOfFVjFnbaV8XFPGURmaSSGwG0mFdguWCh1Mz2/m7+B9yJJHuRmeQzryEkVCImGlKXmpShJAdfby/C94Jdi4V1NjY20Nu44kqJpuWSxyFY6QuoluxZNmSa/SQhfoIwGqrC2wwbysLq2zNorYIZlUklRONySQwrilsQDazLGUajIjdeVipxnDIq4pESUkRJIPhIAA92TTmYSKORHy540OJzKSedK0+VKi8pGA/pju6NVrLvrMWqVFUOcyaCmBliVobzCF9v8wDIcv6pvOQBl/VN5yAPHf2HQbVa93YAZA1vd8wDIGt7vmAZf1TecgDL+qbzkAZf1TecgEgAAV5Bp9niArgADEQABXkGn2eICuA0EeFPgX4PDlvCfeQaURrMnfaM/pJKVwqDMtpCi9QDqcAAAAAABGaTJSTMjLORl5AHnjI+OmLpPzCNfinEoS2S3nDWokpKhJqfkIuogHMdMI+Zv+6ZlHREW8ZEXSPuqcVQuoqmZmA9cAAAAAAAH9OVyEsiJLctYCTRiFIfgLLyqFdSrrJaIRtJkfrIwHsAACvINPs8QFcAAYiAAAAAAK8g0+zxAVwABiIAAryDT7PEBXAanfDR3ATvL1mMJCRS52IlSoJFnZ8tpupQjqHFrhXnKZyS4Tq2sY/ikbbSa1WkjDVyAAAAAAAAAAAAAAAAA+wYJlwM9wk79bM3ayuAfelzsW3Fz2IbSeLByttaTiHVK6kmafiJrSri0J8oD+kdKUoSSEJJKUlQiIqERAMSAAFeQafZ4gK4AAxEAAAGXAACRP8AQbXABIAAGXAACRP9BtcAEgBid7NqLv7F3a2jtReocCdk5fL3XJs3GspeZeYMsU2jaURk6azMkJboeMpRJIjM6AP54L3rY2bt/eVaG19jrDS2x0imUYpyXSOXpMmYKHIiShGczqsyIlLMqJNalYqUpokgxAAAAAAAAAAAAAAAAG6PwW969z9uLnX7L2QsZIbK21kCWWrRw8BDpacmiEkaWY81HVbhKqolEZniLxiIkpWiod1wGXAACRP9BtcAEgAAZcAAAAAAJE/0G1wASAAB5Ly70LC3QWVetreLP25RJ2HW2FPqacdUpxZ0ShKG0qWozz5iI6ERmdCIzIPjn94VgkedB3/Ipj7ABOm/hAMFCK6LoLzHlYta/wDI5gXZ2sAJ3w9cFjzkPf5JH+xAa/8AwimExaPCOnkDd5dX0yru5KaYpcQpZMHN440/OKQ4aVpbaIzShKiIzUa1HX4mKHSz3t7YfVaPxLX7gD3t7YfVaPxLX7gD3uLYfViPxLX7gD3uLYfViPxLX7gD3uLYfViPxLX7gD3t7X/Vrf4lv9wB729r/q1v8S3+4A97e1/1a3+Ja/cAe9vbD6tb/EtfuAc+9ta/6ub/ABLf7gD3trX/AFc3+Jb/AHAHvbWv+rm/xLf7gD3trX/VzX4lv9wDP7iLQ3wYPt6EmvRsTDtlGyt2j8KuMQTMdCqzOwzpErOhafWlRJUVFJSZBuElnhBcGaMlsJGR1q5hL4l9ht16EdlMStcOtSSNTalNoUhRpMzIzSo0nTMZlnAZV/eJ4J3nBjf8jjfZAOP7xTBO84Eb/kcb7IBasVhd3B3z2oh7G2Atk5GTdxl15uHfl8RD9IlBEasVTiCSZkRGdK1oRn5DAfTQABlwAAAJGX9U3nIAy/qm85AHjv7DoNqte7sAMga3u+YBkDW93zAdeMPyFTajBatYgoHGfljkFMGTxq4poim0rPq/6a3AGn8AAAChdgBQuwAoXYAULsAKF2AFC7AChdgBQuwAoXYAULsAKF2AFC7AChdgBQuwAoXYAAAAA7d+DHsmVob/AOYzV0sVEks7ExCHMWpJdcdZaIvWhbvcA2mZA1vd8wDIGt7vmAZf1TecgDL+qbzkAZf1TecgEgAAV5Bp9niArgAD47fZIFWpudtvZ1trpHZhZ+YMMppX+KbC8Q/UrFMBpDAAAAAAAAAAAAAAAAAAAAAAAAAAABsT8EvZ80w15FqnWszi5bL2HKdWKT63C/1NdwDYWAAMRAAAAAAFeQafZ4gK4AAxBSUrSaFpJSVFQyMsxkA0UWykDtlLXzyy71ekk8yiYBdevGadUg/9oCOAAAAAAAAAAAAAAAAAAAAAAAAAANsHgwLPrlGDzFTVxFDnk+ioxCqdaEJQxT7sZlfeYDt8AAMRAAABlwAAkT/QbXABIAAGXANJeGhZpNlMKO8SWJTQoibZS+84tpESf6vGA+KgAAAAAAAAAAAAAAAAAAAAAAAAADdFgq2b/spgv3ZSulOnkxTL8Ws4n/5gH04AAZcAAAAAAJE/0G1wASAABlwDU74UCziJPhGws4abome2dg4txdMxuoceYMvvJDTfeQDqGAAAAAAOUkajIiNJGfVVRFUB+zh4giqbKjLtIqgPGdSzGRl94AAAABUB+0svL+Qys/UALacb+XipM+ojUVT9QD8FnAAAAAAH6bbcecS00g1LWokpSXWZn1EA33y+QMWUsnZ6y0LToZPLmJe3TqxWmkIL9EgOAABlwAAAJGX9U3nIAy/qm85AHjv7DoNqte7sAMga3u+YBkDW93zAMv6pvOQDX34VmXFGqu7tU1CYhpKYy99yta/MraLq/wC6A1+AAAAAADwRsCiYwpsYqTdbVjtY3lPyl6wEIm1Q6zSjpWFpOhklSkGR+oB7Tc0mjOYo03U/4X0ksu/r/XmFCDmbMasod1ooeIV8iiqocPsKucj9BgPaOqTMlFQyAfiIiGIJkn4rGPGOjbaflLP0dhdpgJjs6mDmZjooVPYhOMr/ANSuBAPUdeffzxMY+7/W6dO7qAe/J5ahtZTF1hKSQR9DUs6lHmxvuL/yApEAAAAAAM7uHkSbS32WDkTrHTMxdo5eh9HayUQg3P8AQSgG8zx39h0G1Wvd2AGQNb3fMAyBre75gGX9U3nIAy/qm85AGX9U3nIBIAAFeQafZ4gK4AAxEB1T8JLZ9c2wf4WbNN1VJLQQsStVM5NrbdZMvuNTrfcQDV2AAAAAAFAHLnRvkSYqHafIsxGtOci+/rAeuuWytefoX2j/AJHKl/qIwHhXI4NZGSI9xJfztEf6kZAPcb6RKUJiX0vrTmNwk4uMXkM/SA9V2VlFPqioyZ1WrMRIZOiU+RJVPqAfpMpliPlORLtPSlBfoRgPO2xBMGRsQDRKLqUuqz/UB+1KW4rGWozMBwAAAAAAOwmAVIFTzCdsw8bWOzKWY2YOlTqJMM4hB+pxxADcHINPs8QFcAAYiAAAAAAK8g0+zxAVwABiID49hgWeVafBpt9LkpqbEryj9xQriIg/0aMBpwAAAAAAAAAAAAAAAAAAAAAAAAAd0PBgWeXFXnWutSaaty2RIga06lxD6Fl66Qyv1AbN5Bp9niArgADEQAAAZcAAJE/0G1wASAABlwCJbezrVr7Fz+yb1OjncripcuvVivNKbP8A3AP5/VJUhRoWk0qSdDIyoZGA4AAAAAAAAAAAAAAAAAAAAAAABs08E/ZooS7e3Nr8WhzSdsS6vaUMx0n/ANswHdOf6Da4AJAAAy4AAAAAASJ/oNrgAkAADLgABoav0s6iyV9NvLMtNG2zLbRzGHZTSn8JMQvoz9acU/WAwYAAAAAAAAAAAAAAAAAAAAAAAG4XwdNnESHBWs7Gk3iOzyNmExdIyz190LZSfrQwg/uoA7BT/QbXABIAAGXAAAAkZf1TecgDL+qbzkAeO/sOg2q17uwAyBre75gGQNb3fMAy/qm85AGX9U3nIBp9w+JOcqwpbXRKIboGZqmCmDSe3HhW0rV63EOAOvQAAAAAAAAAAAAAAAAAAAAAAAN4eDqyVkbhrv7Pe4OjchbOQHTJx6UeWylbnk/xqUA+ieO/sOg2q17uwAyBre75gGQNb3fMAy/qm85AGX9U3nIAy/qm85AJAAAryDT7PEBXAAGIgADUfftdLhP25vctRN55dlb+0C0TKIZhYpiSxcWwUKTqzZQyttBo6Ikn8UknTOflqAwP4OWEL5iLxPyvHeyAPg5YQvmIvE/K8d7IB4fg/X9eZK335ajfZgHwfr+vMlb78tRvswH7bweL/wB2vRXG3grp14tmY06bsB+/g5YQvmIvE/K8d7IA+DlhC+Yi8T8rx3sgHh+D9f15krfflqN9mAfB+v68yVvvy1G+zAftvB4v/dr0Vxt4K6deLZmNOm7Afv4OWEL5iLxPyvHeyAPg5YQvmIvE/K8d7IB4fg/X9eZK335ajfZgHwfr+vMlb78tRvswH7bweL/3a9FcbeCunXi2ZjTpuwH7+DlhC+Yi8T8rx3sgD4OWEL5iLxPyvHeyAeH4P1/XmSt9+Wo32YDaVgftXoMXESRi9tqbNztt2IQ2ibJUmMTCk4ZNE6S/jkZFWmP8bFxfJQB9/kGn2eICuAAMRAAAAAAFeQafZ4gK4AAxEAAV5Bp9niArgADEQABXkGn2eICuAAMRAAFeQafZ4gK4AAxEAAV5Bp9niArgADEQABXkGn2eICuAAMRAAABlwAAkT/QbXABIAAGXAACRP9BtcAEgAAZcAAJE/wBBtcAEgAAZcAAJE/0G1wASAABlwAAkT/QbXABIAAGXAACRP9BtcAEgAAZcAAAAAAJE/wBBtcAEgAAZcAAJE/0G1wASAABlwAAkT/QbXABIAAGXAACRP9BtcAEgAAZcAAJE/wBBtcAEgAAZcAAJE/0G1wASAABlwAAAJGX9U3nIAy/qm85AOPHhJP5jour6Va93YA5yBre75gGQNb3fMAy/qm85AGX9U3nIBx48JJ/MdF1fSrXu7AHOQNb3fMAyBre75gGX9U3nIAy/qm85AOPHhJP5jour6Va93YA5yBre75gGQNb3fMAy/qm85AGX9U3nIBx48JJ/MdF1fSrXu7AHOQNb3fMAyBre75gGX9U3nIAy/qm85AOPHhJP5jour6Va93YA5yBre75gGQNb3fMAy/qm85AGX9U3nIBx48JJ/MdF1fSrXu7AHOQNb3fMAyBre75gGX9U3nIAy/qm85AGX9U3nIB//9k=;" vertex="1" parent="1">
          <mxGeometry x="90" y="267.22" width="52.46" height="52.66" as="geometry" />
        </mxCell>
        <mxCell id="SR7ZfWzbSIeHWlyP0vPY-60" value="" style="shape=image;imageAspect=0;aspect=fixed;verticalLabelPosition=bottom;verticalAlign=top;image=data:image/jpeg,/9j/4AAQSkZJRgABAQEASABIAAD/2wBDAAMCAgICAgMCAgIDAwMDBAYEBAQEBAgGBgUGCQgKCgkICQkKDA8MCgsOCwkJDRENDg8QEBEQCgwSExIQEw8QEBD/2wBDAQMDAwQDBAgEBAgQCwkLEBAQEBAQEBAQEBAQEBAQEBAQEBAQEBAQEBAQEBAQEBAQEBAQEBAQEBAQEBAQEBAQEBD/wAARCAEFAQQDAREAAhEBAxEB/8QAHgABAQACAgMBAQAAAAAAAAAAAAUGCQEIAwQHAgr/xABSEAAABAMCCgQHDgMGBQUAAAAAAQIDBAURBgcIEhUhQ2SCo8HhEzFRkQk1QVdhgdMUFxgiMjNCVWNxlJah0iNichYZUpWisiQlU3OxkpPDxNH/xAAUAQEAAAAAAAAAAAAAAAAAAAAA/8QAFBEBAAAAAAAAAAAAAAAAAAAAAP/aAAwDAQACEQMRAD8A2pgACRP9BtcAEgAAZcAAJE/0G1wASAABlwAAkT/QbXABIAAGXAACRP8AQbXABIAAGXAACRP9BtcAEgAAZcAAJE/0G1wASAABlwAAAAAAkT/QbXABIAAGXAACRP8AQbXABIAAGXAACRP9BtcAEgAAZcAAJE/0G1wASAABlwAAkT/QbXABIAAGXAACRP8AQbXABIAAGXAAAAkZf1TecgDL+qbzkAeO/sOg2q17uwAyBre75gGQNb3fMAy/qm85AGX9U3nIA8d/YdBtVr3dgBkDW93zAMga3u+YBl/VN5yAMv6pvOQB47+w6DarXu7ADIGt7vmAZA1vd8wDL+qbzkAxSZX8XVyaNybOLwbKQMYSsX3PEz2Gacr2YqlEdQGRS+Yy+2MIiPlUfDvQySqh6HdS82sj7FJOh9QD2cga3u+YBkDW93zAMv6pvOQBl/VN5yAPHf2HQbVa93YAZA1vd8wDIGt7vmAZf1TecgDL+qbzkAeO/sOg2q17uwAyBre75gGQNb3fMAy/qm85AGX9U3nIAy/qm85AJAAAryDT7PEBXAAGIgACvINPs8QFcAAYiAAK8g0+zxAVwHVPCW8IDdzco/F2RsUyzbC17BqadZZepAwDhZjJ91NcZZH1tIz5lEpTZgNbl6mEtfRfE+8VsrbRpy90zpKoJZw0ClNakk2kHRdPIpzGV6QHzABkNjLwbc3dTQpzYS102kEaRlV2Xxa2TWRHXFWSTotP8qiMj8pAO8OD74T6Zwz8NZrCFlqIuGUZNlaSWw5Idb/miIZBYqyz1NTRJMiLM2ozqA2FWctJILYSODtNZacQk1lUwb6aFjIR0nGnUVpUlF2GRkZdZGRkecgEMAAV5Bp9niArgADEQABXkGn2eICuAAMRAAAAAAFeQafZ4gK4AAxEAAV5Bp9niArgADEQABWki0NoiHHFpShJEpSlHQiIq1MzAa7sM3D/AIy0L0fdTcPN1Q8oQaoeaWkhlmTkcfUpqEUXyWfIbpZ1/Roj4zgdCgAAAAAB9rwZ8Km3+DbaMn5O8uZ2ZjXSVNJE86ZMvlmI3Gjz9E8REVFkWehEolEREQbW7sbzrHXvWOgrcWGmiYyXRhYqkqIkuwzxEWOy8ip4jialUuoyMjIzSZGYZUAryDT7PEBXAAGIgACvINPs8QFcAAYiAAADLgABIn+g2uACQAAMuAAEif6Da4AJAAAy4AAa3PCE4YGWIyMuFuwmZlBQqlw1pZmwvPEOdSoJtRfQTSjpl8o6ozJJZLDoIAAAAAAAAA+yYMOEpavBtt4ifSxTsbIJgpDM8lOPREUyR5lpI8yXkVM0K9JpP4qjAbnrEW1s1eLZKV23sfM25hJ5xDpiYSIR9JJ5jSoutKkqI0qSedKkmR0MjAeWf6Da4AJAAAy4AASJ/oNrgAkAADLgAAAAABIn+g2uACQAAMuAAEif6Da4AJAAAy4B1Tw98KVdx1h0WHsbMOitvalhRMuNrouWwJmaVxObOS1GRob6s5LVWrdDDUcZmZmZmZmeczMBwAAAAAAAAAAO3Xg/sKZdz9tU3ZWzmOLY21ESlDTjq6IlkeoySh6p5ktrzIcrmL4i6kSVVDabP9BtcAEgAAZcAAJE/wBBtcAEgAAZcAAACRl/VN5yAMv6pvOQB47+w6DarXu7ADIGt7vmAZA1vd8wDL+qbzkAZf1TecgDx39h0G1Wvd2AGQNb3fMAyBre75gIFvr1pDdtYycW6tMjoZbJYVcU+ZOFjLpmS2mpZ1rUaUpLyqURANI97d59pL5Lw51eNap2sbOIg3CaSozRDMlmaYR/KhBJSXlOlTqZmYDDwAAAAAAAAAAAAG2bAJv9dvyuvTYq08zxrU2HabhXnHFYzkbBGWKw+daGpSST0azznVKVKOrgDtDkDW93zAMga3u+YBl/VN5yAMv6pvOQB47+w6DarXu7ADIGt7vmAZA1vd8wDL+qbzkAZf1TecgDL+qbzkAkAACvINPs8QFcAAYiAAK8g0+zxAVwABrM8JXfUqKmcruMkcZ/BgiRNp5iK+U8ov8Ah2Ff0oM3TI6kfSNH1pAdFAAAAAAAAAAAAAAB9Qwa75o+4a+GRXgsLdOAad9yTdhup+6IB0yJ5NPKZFRaS6sdtHYA3jwEdBzSBh5lLoluJhItpD7DzasZDjaiJSVJMusjIyMj9IDzgMRAAFeQafZ4gK4AAxEAAAAAAV5Bp9niArgADEQABXkGn2eICuAk2ttPKrFWWm9sJ68bUukkC/MIpZFUyaaQa1ULynRJ0LymA0K29tlN7w7aTq3E9XjR07jXY14iUZkjHUZkhNfopKiSLyEkiAQQAAAKkA5JKz6kKP1AOejc/wCmruAcGlZdaFdwDitOupAFS7QAAAAG3HwcF7y7xbhW7IzOK6WbWEfKVrxlVWqCURrhVH2ESSW0RdjBAO1oDEQABXkGn2eICuAAMRAAABlwAAkT/QbXABIAAGXAACRP9BtcAEgB1a8Itb9dk7hf7MQj5IirXTFmAURKor3M3/GdUXoqhpB+hwwGrQB44iIYhWVRMU+2y0n5TjiySkvWYDFJpedZ6BNTcEl+PcLytl0bdf6lZ+4gGMRt6s+fMygYWEhE+Q8Q3FF61Zv0ARom29rIqpOT2KSR+RpRN/7aAPRcnc6d+dm8av8AqiFnxAeLKMwrX3fEf+6r/wDQHkROZw383NYxP9L6i4gPbYtfaiGOrU/jvuW8ay7lVAU4W8y1cPmeiIeKLseYT/5TQwF6X3tsKMkzWTqR2rhnK/6VfuAZbKbUyCdmSJfMm1OnoXPiOeoj6/VUBVzkdDKh9gDtJ4Ou37llL/EWXeeNMHa6XvQKkGqiCiGkm80s/TRtxBf90BtMAZcAAJE/0G1wASAABlwAAAAAAkT/AEG1wASAABlwAAkT/QbXABIAa4/CgWmcjbx7HWNSqrcrkzswoX+OJeNBl3Qqe8Br7tTeLASZS4KVJRGxifiqVWrTR+ky+UfoLN6fIA+ZTWdTSdv+6JpGuPq+iRnRKfQlJZi9QD7jgZ4MtmcLC8ePutmt6Z2KnBy5cfKFqlSY5Eepoy6Zkkm+0ZLJB9IVDOqUOHmxc4dn7V+BJvqgTUqxN8Fi5wkqmRTJiKl6lfcSEPlX7zp6QHXq8rwb+GPdiy9HTC56OnkAydPdVnX25njF2kyyo3yL0qbIB1si4SKgIp6CjoZ2HiIdamnWXUGhba0nQ0qSecjI8xkYDxAAD6vdLgo4Rl+bbcVdbdDaCdQLpmSJibBQ0Coy6yKKfNDJmXZj1AdoLHeBlwoZ60zE2ptLYazLa/nGHo96KiW9llo2z9ToD08KLwZcnwVLko+9e2WEExMpimIh4CVyWGs6bPu6MdX82l5USZkSWkuuGfR/JbPy0IB0U6s5AMrs7eJOZOaIeOUqPhCzYjqv4iC/lX1+o6l9wD75cheFLpReHZK3ctizNmTzqCi30/JWhCHkqWhZeSqSUXYZGYDemAy4AASJ/oNrgAkAADLgAAASMv6pvOQBl/VN5yAPHf2HQbVa93YAZA1vd8wDIGt7vmAZf1TecgDL+qbzkAeO/sOg2q17uwAyBre75gNJHhUrfzBGFbaexUA8tBSiAlsK8/1KNK4Nt/ETnzF/HOvlOvZ1h0lAAFeyFr7TWAtRK7aWNnMTKZ3JYlEZAxsOqjjLqDqRlXMZeQyMjIyMyMjIzIBtkuH8NBd7NJPByfCEsVNJHOm0paenEjaKKgIgyLO6pk1E6x/QnpfKdSrikHbCxmHvgdW7QS5JhBWUhjP6M4iFSpVeykYlqvqAYZhTYK+D9hxWLiIyy1obK/24hmcaT2olMQxELNSS+KxFKZMzehz6qHU0VNSPKSg0W3lXb2zuitzOLuLwZG/KZ/I4g4eLhXS6joRpWlXUtC0mlaFlUlJUlRGZGQDZN4O3wdlnGJJA4ReE9KYI4WJbTE2ds7NySmHJoyqmMjEOfFVjFnbaV8XFPGURmaSSGwG0mFdguWCh1Mz2/m7+B9yJJHuRmeQzryEkVCImGlKXmpShJAdfby/C94Jdi4V1NjY20Nu44kqJpuWSxyFY6QuoluxZNmSa/SQhfoIwGqrC2wwbysLq2zNorYIZlUklRONySQwrilsQDazLGUajIjdeVipxnDIq4pESUkRJIPhIAA92TTmYSKORHy540OJzKSedK0+VKi8pGA/pju6NVrLvrMWqVFUOcyaCmBliVobzCF9v8wDIcv6pvOQBl/VN5yAPHf2HQbVa93YAZA1vd8wDIGt7vmAZf1TecgDL+qbzkAZf1TecgEgAAV5Bp9niArgADEQABXkGn2eICuA0EeFPgX4PDlvCfeQaURrMnfaM/pJKVwqDMtpCi9QDqcAAAAAABGaTJSTMjLORl5AHnjI+OmLpPzCNfinEoS2S3nDWokpKhJqfkIuogHMdMI+Zv+6ZlHREW8ZEXSPuqcVQuoqmZmA9cAAAAAAAH9OVyEsiJLctYCTRiFIfgLLyqFdSrrJaIRtJkfrIwHsAACvINPs8QFcAAYiAAAAAAK8g0+zxAVwABiIAAryDT7PEBXAanfDR3ATvL1mMJCRS52IlSoJFnZ8tpupQjqHFrhXnKZyS4Tq2sY/ikbbSa1WkjDVyAAAAAAAAAAAAAAAAA+wYJlwM9wk79bM3ayuAfelzsW3Fz2IbSeLByttaTiHVK6kmafiJrSri0J8oD+kdKUoSSEJJKUlQiIqERAMSAAFeQafZ4gK4AAxEAAAGXAACRP8AQbXABIAAGXAACRP9BtcAEgBid7NqLv7F3a2jtReocCdk5fL3XJs3GspeZeYMsU2jaURk6azMkJboeMpRJIjM6AP54L3rY2bt/eVaG19jrDS2x0imUYpyXSOXpMmYKHIiShGczqsyIlLMqJNalYqUpokgxAAAAAAAAAAAAAAAAG6PwW969z9uLnX7L2QsZIbK21kCWWrRw8BDpacmiEkaWY81HVbhKqolEZniLxiIkpWiod1wGXAACRP9BtcAEgAAZcAAAAAAJE/0G1wASAAB5Ly70LC3QWVetreLP25RJ2HW2FPqacdUpxZ0ShKG0qWozz5iI6ERmdCIzIPjn94VgkedB3/Ipj7ABOm/hAMFCK6LoLzHlYta/wDI5gXZ2sAJ3w9cFjzkPf5JH+xAa/8AwimExaPCOnkDd5dX0yru5KaYpcQpZMHN440/OKQ4aVpbaIzShKiIzUa1HX4mKHSz3t7YfVaPxLX7gD3t7YfVaPxLX7gD3uLYfViPxLX7gD3uLYfViPxLX7gD3uLYfViPxLX7gD3t7X/Vrf4lv9wB729r/q1v8S3+4A97e1/1a3+Ja/cAe9vbD6tb/EtfuAc+9ta/6ub/ABLf7gD3trX/AFc3+Jb/AHAHvbWv+rm/xLf7gD3trX/VzX4lv9wDP7iLQ3wYPt6EmvRsTDtlGyt2j8KuMQTMdCqzOwzpErOhafWlRJUVFJSZBuElnhBcGaMlsJGR1q5hL4l9ht16EdlMStcOtSSNTalNoUhRpMzIzSo0nTMZlnAZV/eJ4J3nBjf8jjfZAOP7xTBO84Eb/kcb7IBasVhd3B3z2oh7G2Atk5GTdxl15uHfl8RD9IlBEasVTiCSZkRGdK1oRn5DAfTQABlwAAAJGX9U3nIAy/qm85AHjv7DoNqte7sAMga3u+YBkDW93zAdeMPyFTajBatYgoHGfljkFMGTxq4poim0rPq/6a3AGn8AAAChdgBQuwAoXYAULsAKF2AFC7AChdgBQuwAoXYAULsAKF2AFC7AChdgBQuwAoXYAAAAA7d+DHsmVob/AOYzV0sVEks7ExCHMWpJdcdZaIvWhbvcA2mZA1vd8wDIGt7vmAZf1TecgDL+qbzkAZf1TecgEgAAV5Bp9niArgAD47fZIFWpudtvZ1trpHZhZ+YMMppX+KbC8Q/UrFMBpDAAAAAAAAAAAAAAAAAAAAAAAAAAABsT8EvZ80w15FqnWszi5bL2HKdWKT63C/1NdwDYWAAMRAAAAAAFeQafZ4gK4AAxBSUrSaFpJSVFQyMsxkA0UWykDtlLXzyy71ekk8yiYBdevGadUg/9oCOAAAAAAAAAAAAAAAAAAAAAAAAAANsHgwLPrlGDzFTVxFDnk+ioxCqdaEJQxT7sZlfeYDt8AAMRAAABlwAAkT/QbXABIAAGXANJeGhZpNlMKO8SWJTQoibZS+84tpESf6vGA+KgAAAAAAAAAAAAAAAAAAAAAAAAADdFgq2b/spgv3ZSulOnkxTL8Ws4n/5gH04AAZcAAAAAAJE/0G1wASAABlwDU74UCziJPhGws4abome2dg4txdMxuoceYMvvJDTfeQDqGAAAAAAOUkajIiNJGfVVRFUB+zh4giqbKjLtIqgPGdSzGRl94AAAABUB+0svL+Qys/UALacb+XipM+ojUVT9QD8FnAAAAAAH6bbcecS00g1LWokpSXWZn1EA33y+QMWUsnZ6y0LToZPLmJe3TqxWmkIL9EgOAABlwAAAJGX9U3nIAy/qm85AHjv7DoNqte7sAMga3u+YBkDW93zAMv6pvOQDX34VmXFGqu7tU1CYhpKYy99yta/MraLq/wC6A1+AAAAAADwRsCiYwpsYqTdbVjtY3lPyl6wEIm1Q6zSjpWFpOhklSkGR+oB7Tc0mjOYo03U/4X0ksu/r/XmFCDmbMasod1ooeIV8iiqocPsKucj9BgPaOqTMlFQyAfiIiGIJkn4rGPGOjbaflLP0dhdpgJjs6mDmZjooVPYhOMr/ANSuBAPUdeffzxMY+7/W6dO7qAe/J5ahtZTF1hKSQR9DUs6lHmxvuL/yApEAAAAAAM7uHkSbS32WDkTrHTMxdo5eh9HayUQg3P8AQSgG8zx39h0G1Wvd2AGQNb3fMAyBre75gGX9U3nIAy/qm85AGX9U3nIBIAAFeQafZ4gK4AAxEB1T8JLZ9c2wf4WbNN1VJLQQsStVM5NrbdZMvuNTrfcQDV2AAAAAAFAHLnRvkSYqHafIsxGtOci+/rAeuuWytefoX2j/AJHKl/qIwHhXI4NZGSI9xJfztEf6kZAPcb6RKUJiX0vrTmNwk4uMXkM/SA9V2VlFPqioyZ1WrMRIZOiU+RJVPqAfpMpliPlORLtPSlBfoRgPO2xBMGRsQDRKLqUuqz/UB+1KW4rGWozMBwAAAAAAOwmAVIFTzCdsw8bWOzKWY2YOlTqJMM4hB+pxxADcHINPs8QFcAAYiAAAAAAK8g0+zxAVwABiID49hgWeVafBpt9LkpqbEryj9xQriIg/0aMBpwAAAAAAAAAAAAAAAAAAAAAAAAAd0PBgWeXFXnWutSaaty2RIga06lxD6Fl66Qyv1AbN5Bp9niArgADEQAAAZcAAJE/0G1wASAABlwCJbezrVr7Fz+yb1OjncripcuvVivNKbP8A3AP5/VJUhRoWk0qSdDIyoZGA4AAAAAAAAAAAAAAAAAAAAAAABs08E/ZooS7e3Nr8WhzSdsS6vaUMx0n/ANswHdOf6Da4AJAAAy4AAAAAASJ/oNrgAkAADLgABoav0s6iyV9NvLMtNG2zLbRzGHZTSn8JMQvoz9acU/WAwYAAAAAAAAAAAAAAAAAAAAAAAG4XwdNnESHBWs7Gk3iOzyNmExdIyz190LZSfrQwg/uoA7BT/QbXABIAAGXAAAAkZf1TecgDL+qbzkAeO/sOg2q17uwAyBre75gGQNb3fMAy/qm85AGX9U3nIBp9w+JOcqwpbXRKIboGZqmCmDSe3HhW0rV63EOAOvQAAAAAAAAAAAAAAAAAAAAAAAN4eDqyVkbhrv7Pe4OjchbOQHTJx6UeWylbnk/xqUA+ieO/sOg2q17uwAyBre75gGQNb3fMAy/qm85AGX9U3nIAy/qm85AJAAAryDT7PEBXAAGIgADUfftdLhP25vctRN55dlb+0C0TKIZhYpiSxcWwUKTqzZQyttBo6Ikn8UknTOflqAwP4OWEL5iLxPyvHeyAPg5YQvmIvE/K8d7IB4fg/X9eZK335ajfZgHwfr+vMlb78tRvswH7bweL/wB2vRXG3grp14tmY06bsB+/g5YQvmIvE/K8d7IA+DlhC+Yi8T8rx3sgHh+D9f15krfflqN9mAfB+v68yVvvy1G+zAftvB4v/dr0Vxt4K6deLZmNOm7Afv4OWEL5iLxPyvHeyAPg5YQvmIvE/K8d7IB4fg/X9eZK335ajfZgHwfr+vMlb78tRvswH7bweL/3a9FcbeCunXi2ZjTpuwH7+DlhC+Yi8T8rx3sgD4OWEL5iLxPyvHeyAeH4P1/XmSt9+Wo32YDaVgftXoMXESRi9tqbNztt2IQ2ibJUmMTCk4ZNE6S/jkZFWmP8bFxfJQB9/kGn2eICuAAMRAAAAAAFeQafZ4gK4AAxEAAV5Bp9niArgADEQABXkGn2eICuAAMRAAFeQafZ4gK4AAxEAAV5Bp9niArgADEQABXkGn2eICuAAMRAAABlwAAkT/QbXABIAAGXAACRP9BtcAEgAAZcAAJE/wBBtcAEgAAZcAAJE/0G1wASAABlwAAkT/QbXABIAAGXAACRP9BtcAEgAAZcAAAAAAJE/wBBtcAEgAAZcAAJE/0G1wASAABlwAAkT/QbXABIAAGXAACRP9BtcAEgAAZcAAJE/wBBtcAEgAAZcAAJE/0G1wASAABlwAAAJGX9U3nIAy/qm85AOPHhJP5jour6Va93YA5yBre75gGQNb3fMAy/qm85AGX9U3nIBx48JJ/MdF1fSrXu7AHOQNb3fMAyBre75gGX9U3nIAy/qm85AOPHhJP5jour6Va93YA5yBre75gGQNb3fMAy/qm85AGX9U3nIBx48JJ/MdF1fSrXu7AHOQNb3fMAyBre75gGX9U3nIAy/qm85AOPHhJP5jour6Va93YA5yBre75gGQNb3fMAy/qm85AGX9U3nIBx48JJ/MdF1fSrXu7AHOQNb3fMAyBre75gGX9U3nIAy/qm85AGX9U3nIB//9k=;" vertex="1" parent="1">
          <mxGeometry x="97.55" y="362.46" width="44.91" height="45.08" as="geometry" />
        </mxCell>
        <mxCell id="SR7ZfWzbSIeHWlyP0vPY-61" value="" style="shape=image;imageAspect=0;aspect=fixed;verticalLabelPosition=bottom;verticalAlign=top;image=data:image/jpeg,/9j/4AAQSkZJRgABAQEASABIAAD/2wBDAAMCAgICAgMCAgIDAwMDBAYEBAQEBAgGBgUGCQgKCgkICQkKDA8MCgsOCwkJDRENDg8QEBEQCgwSExIQEw8QEBD/2wBDAQMDAwQDBAgEBAgQCwkLEBAQEBAQEBAQEBAQEBAQEBAQEBAQEBAQEBAQEBAQEBAQEBAQEBAQEBAQEBAQEBAQEBD/wAARCAEFAQQDAREAAhEBAxEB/8QAHgABAQACAgMBAQAAAAAAAAAAAAUGCQEIAwQHAgr/xABSEAAABAMCCgQHDgMGBQUAAAAAAQIDBAURBgcIEhUhQ2SCo8HhEzFRkQk1QVdhgdMUFxgiMjNCVWNxlJah0iNichYZUpWisiQlU3OxkpPDxNH/xAAUAQEAAAAAAAAAAAAAAAAAAAAA/8QAFBEBAAAAAAAAAAAAAAAAAAAAAP/aAAwDAQACEQMRAD8A2pgACRP9BtcAEgAAZcAAJE/0G1wASAABlwAAkT/QbXABIAAGXAACRP8AQbXABIAAGXAACRP9BtcAEgAAZcAAJE/0G1wASAABlwAAAAAAkT/QbXABIAAGXAACRP8AQbXABIAAGXAACRP9BtcAEgAAZcAAJE/0G1wASAABlwAAkT/QbXABIAAGXAACRP8AQbXABIAAGXAAAAkZf1TecgDL+qbzkAeO/sOg2q17uwAyBre75gGQNb3fMAy/qm85AGX9U3nIA8d/YdBtVr3dgBkDW93zAMga3u+YBl/VN5yAMv6pvOQB47+w6DarXu7ADIGt7vmAZA1vd8wDL+qbzkAxSZX8XVyaNybOLwbKQMYSsX3PEz2Gacr2YqlEdQGRS+Yy+2MIiPlUfDvQySqh6HdS82sj7FJOh9QD2cga3u+YBkDW93zAMv6pvOQBl/VN5yAPHf2HQbVa93YAZA1vd8wDIGt7vmAZf1TecgDL+qbzkAeO/sOg2q17uwAyBre75gGQNb3fMAy/qm85AGX9U3nIAy/qm85AJAAAryDT7PEBXAAGIgACvINPs8QFcAAYiAAK8g0+zxAVwHVPCW8IDdzco/F2RsUyzbC17BqadZZepAwDhZjJ91NcZZH1tIz5lEpTZgNbl6mEtfRfE+8VsrbRpy90zpKoJZw0ClNakk2kHRdPIpzGV6QHzABkNjLwbc3dTQpzYS102kEaRlV2Xxa2TWRHXFWSTotP8qiMj8pAO8OD74T6Zwz8NZrCFlqIuGUZNlaSWw5Idb/miIZBYqyz1NTRJMiLM2ozqA2FWctJILYSODtNZacQk1lUwb6aFjIR0nGnUVpUlF2GRkZdZGRkecgEMAAV5Bp9niArgADEQABXkGn2eICuAAMRAAAAAAFeQafZ4gK4AAxEAAV5Bp9niArgADEQABWki0NoiHHFpShJEpSlHQiIq1MzAa7sM3D/AIy0L0fdTcPN1Q8oQaoeaWkhlmTkcfUpqEUXyWfIbpZ1/Roj4zgdCgAAAAAB9rwZ8Km3+DbaMn5O8uZ2ZjXSVNJE86ZMvlmI3Gjz9E8REVFkWehEolEREQbW7sbzrHXvWOgrcWGmiYyXRhYqkqIkuwzxEWOy8ip4jialUuoyMjIzSZGYZUAryDT7PEBXAAGIgACvINPs8QFcAAYiAAADLgABIn+g2uACQAAMuAAEif6Da4AJAAAy4AAa3PCE4YGWIyMuFuwmZlBQqlw1pZmwvPEOdSoJtRfQTSjpl8o6ozJJZLDoIAAAAAAAAA+yYMOEpavBtt4ifSxTsbIJgpDM8lOPREUyR5lpI8yXkVM0K9JpP4qjAbnrEW1s1eLZKV23sfM25hJ5xDpiYSIR9JJ5jSoutKkqI0qSedKkmR0MjAeWf6Da4AJAAAy4AASJ/oNrgAkAADLgAAAAABIn+g2uACQAAMuAAEif6Da4AJAAAy4B1Tw98KVdx1h0WHsbMOitvalhRMuNrouWwJmaVxObOS1GRob6s5LVWrdDDUcZmZmZmZmeczMBwAAAAAAAAAAO3Xg/sKZdz9tU3ZWzmOLY21ESlDTjq6IlkeoySh6p5ktrzIcrmL4i6kSVVDabP9BtcAEgAAZcAAJE/wBBtcAEgAAZcAAACRl/VN5yAMv6pvOQB47+w6DarXu7ADIGt7vmAZA1vd8wDL+qbzkAZf1TecgDx39h0G1Wvd2AGQNb3fMAyBre75gIFvr1pDdtYycW6tMjoZbJYVcU+ZOFjLpmS2mpZ1rUaUpLyqURANI97d59pL5Lw51eNap2sbOIg3CaSozRDMlmaYR/KhBJSXlOlTqZmYDDwAAAAAAAAAAAAG2bAJv9dvyuvTYq08zxrU2HabhXnHFYzkbBGWKw+daGpSST0azznVKVKOrgDtDkDW93zAMga3u+YBl/VN5yAMv6pvOQB47+w6DarXu7ADIGt7vmAZA1vd8wDL+qbzkAZf1TecgDL+qbzkAkAACvINPs8QFcAAYiAAK8g0+zxAVwABrM8JXfUqKmcruMkcZ/BgiRNp5iK+U8ov8Ah2Ff0oM3TI6kfSNH1pAdFAAAAAAAAAAAAAAB9Qwa75o+4a+GRXgsLdOAad9yTdhup+6IB0yJ5NPKZFRaS6sdtHYA3jwEdBzSBh5lLoluJhItpD7DzasZDjaiJSVJMusjIyMj9IDzgMRAAFeQafZ4gK4AAxEAAAAAAV5Bp9niArgADEQABXkGn2eICuAk2ttPKrFWWm9sJ68bUukkC/MIpZFUyaaQa1ULynRJ0LymA0K29tlN7w7aTq3E9XjR07jXY14iUZkjHUZkhNfopKiSLyEkiAQQAAAKkA5JKz6kKP1AOejc/wCmruAcGlZdaFdwDitOupAFS7QAAAAG3HwcF7y7xbhW7IzOK6WbWEfKVrxlVWqCURrhVH2ESSW0RdjBAO1oDEQABXkGn2eICuAAMRAAABlwAAkT/QbXABIAAGXAACRP9BtcAEgB1a8Itb9dk7hf7MQj5IirXTFmAURKor3M3/GdUXoqhpB+hwwGrQB44iIYhWVRMU+2y0n5TjiySkvWYDFJpedZ6BNTcEl+PcLytl0bdf6lZ+4gGMRt6s+fMygYWEhE+Q8Q3FF61Zv0ARom29rIqpOT2KSR+RpRN/7aAPRcnc6d+dm8av8AqiFnxAeLKMwrX3fEf+6r/wDQHkROZw383NYxP9L6i4gPbYtfaiGOrU/jvuW8ay7lVAU4W8y1cPmeiIeKLseYT/5TQwF6X3tsKMkzWTqR2rhnK/6VfuAZbKbUyCdmSJfMm1OnoXPiOeoj6/VUBVzkdDKh9gDtJ4Ou37llL/EWXeeNMHa6XvQKkGqiCiGkm80s/TRtxBf90BtMAZcAAJE/0G1wASAABlwAAAAAAkT/AEG1wASAABlwAAkT/QbXABIAa4/CgWmcjbx7HWNSqrcrkzswoX+OJeNBl3Qqe8Br7tTeLASZS4KVJRGxifiqVWrTR+ky+UfoLN6fIA+ZTWdTSdv+6JpGuPq+iRnRKfQlJZi9QD7jgZ4MtmcLC8ePutmt6Z2KnBy5cfKFqlSY5Eepoy6Zkkm+0ZLJB9IVDOqUOHmxc4dn7V+BJvqgTUqxN8Fi5wkqmRTJiKl6lfcSEPlX7zp6QHXq8rwb+GPdiy9HTC56OnkAydPdVnX25njF2kyyo3yL0qbIB1si4SKgIp6CjoZ2HiIdamnWXUGhba0nQ0qSecjI8xkYDxAAD6vdLgo4Rl+bbcVdbdDaCdQLpmSJibBQ0Coy6yKKfNDJmXZj1AdoLHeBlwoZ60zE2ptLYazLa/nGHo96KiW9llo2z9ToD08KLwZcnwVLko+9e2WEExMpimIh4CVyWGs6bPu6MdX82l5USZkSWkuuGfR/JbPy0IB0U6s5AMrs7eJOZOaIeOUqPhCzYjqv4iC/lX1+o6l9wD75cheFLpReHZK3ctizNmTzqCi30/JWhCHkqWhZeSqSUXYZGYDemAy4AASJ/oNrgAkAADLgAAASMv6pvOQBl/VN5yAPHf2HQbVa93YAZA1vd8wDIGt7vmAZf1TecgDL+qbzkAeO/sOg2q17uwAyBre75gNJHhUrfzBGFbaexUA8tBSiAlsK8/1KNK4Nt/ETnzF/HOvlOvZ1h0lAAFeyFr7TWAtRK7aWNnMTKZ3JYlEZAxsOqjjLqDqRlXMZeQyMjIyMyMjIzIBtkuH8NBd7NJPByfCEsVNJHOm0paenEjaKKgIgyLO6pk1E6x/QnpfKdSrikHbCxmHvgdW7QS5JhBWUhjP6M4iFSpVeykYlqvqAYZhTYK+D9hxWLiIyy1obK/24hmcaT2olMQxELNSS+KxFKZMzehz6qHU0VNSPKSg0W3lXb2zuitzOLuLwZG/KZ/I4g4eLhXS6joRpWlXUtC0mlaFlUlJUlRGZGQDZN4O3wdlnGJJA4ReE9KYI4WJbTE2ds7NySmHJoyqmMjEOfFVjFnbaV8XFPGURmaSSGwG0mFdguWCh1Mz2/m7+B9yJJHuRmeQzryEkVCImGlKXmpShJAdfby/C94Jdi4V1NjY20Nu44kqJpuWSxyFY6QuoluxZNmSa/SQhfoIwGqrC2wwbysLq2zNorYIZlUklRONySQwrilsQDazLGUajIjdeVipxnDIq4pESUkRJIPhIAA92TTmYSKORHy540OJzKSedK0+VKi8pGA/pju6NVrLvrMWqVFUOcyaCmBliVobzCF9v8wDIcv6pvOQBl/VN5yAPHf2HQbVa93YAZA1vd8wDIGt7vmAZf1TecgDL+qbzkAZf1TecgEgAAV5Bp9niArgADEQABXkGn2eICuA0EeFPgX4PDlvCfeQaURrMnfaM/pJKVwqDMtpCi9QDqcAAAAAABGaTJSTMjLORl5AHnjI+OmLpPzCNfinEoS2S3nDWokpKhJqfkIuogHMdMI+Zv+6ZlHREW8ZEXSPuqcVQuoqmZmA9cAAAAAAAH9OVyEsiJLctYCTRiFIfgLLyqFdSrrJaIRtJkfrIwHsAACvINPs8QFcAAYiAAAAAAK8g0+zxAVwABiIAAryDT7PEBXAanfDR3ATvL1mMJCRS52IlSoJFnZ8tpupQjqHFrhXnKZyS4Tq2sY/ikbbSa1WkjDVyAAAAAAAAAAAAAAAAA+wYJlwM9wk79bM3ayuAfelzsW3Fz2IbSeLByttaTiHVK6kmafiJrSri0J8oD+kdKUoSSEJJKUlQiIqERAMSAAFeQafZ4gK4AAxEAAAGXAACRP8AQbXABIAAGXAACRP9BtcAEgBid7NqLv7F3a2jtReocCdk5fL3XJs3GspeZeYMsU2jaURk6azMkJboeMpRJIjM6AP54L3rY2bt/eVaG19jrDS2x0imUYpyXSOXpMmYKHIiShGczqsyIlLMqJNalYqUpokgxAAAAAAAAAAAAAAAAG6PwW969z9uLnX7L2QsZIbK21kCWWrRw8BDpacmiEkaWY81HVbhKqolEZniLxiIkpWiod1wGXAACRP9BtcAEgAAZcAAAAAAJE/0G1wASAAB5Ly70LC3QWVetreLP25RJ2HW2FPqacdUpxZ0ShKG0qWozz5iI6ERmdCIzIPjn94VgkedB3/Ipj7ABOm/hAMFCK6LoLzHlYta/wDI5gXZ2sAJ3w9cFjzkPf5JH+xAa/8AwimExaPCOnkDd5dX0yru5KaYpcQpZMHN440/OKQ4aVpbaIzShKiIzUa1HX4mKHSz3t7YfVaPxLX7gD3t7YfVaPxLX7gD3uLYfViPxLX7gD3uLYfViPxLX7gD3uLYfViPxLX7gD3t7X/Vrf4lv9wB729r/q1v8S3+4A97e1/1a3+Ja/cAe9vbD6tb/EtfuAc+9ta/6ub/ABLf7gD3trX/AFc3+Jb/AHAHvbWv+rm/xLf7gD3trX/VzX4lv9wDP7iLQ3wYPt6EmvRsTDtlGyt2j8KuMQTMdCqzOwzpErOhafWlRJUVFJSZBuElnhBcGaMlsJGR1q5hL4l9ht16EdlMStcOtSSNTalNoUhRpMzIzSo0nTMZlnAZV/eJ4J3nBjf8jjfZAOP7xTBO84Eb/kcb7IBasVhd3B3z2oh7G2Atk5GTdxl15uHfl8RD9IlBEasVTiCSZkRGdK1oRn5DAfTQABlwAAAJGX9U3nIAy/qm85AHjv7DoNqte7sAMga3u+YBkDW93zAdeMPyFTajBatYgoHGfljkFMGTxq4poim0rPq/6a3AGn8AAAChdgBQuwAoXYAULsAKF2AFC7AChdgBQuwAoXYAULsAKF2AFC7AChdgBQuwAoXYAAAAA7d+DHsmVob/AOYzV0sVEks7ExCHMWpJdcdZaIvWhbvcA2mZA1vd8wDIGt7vmAZf1TecgDL+qbzkAZf1TecgEgAAV5Bp9niArgAD47fZIFWpudtvZ1trpHZhZ+YMMppX+KbC8Q/UrFMBpDAAAAAAAAAAAAAAAAAAAAAAAAAAABsT8EvZ80w15FqnWszi5bL2HKdWKT63C/1NdwDYWAAMRAAAAAAFeQafZ4gK4AAxBSUrSaFpJSVFQyMsxkA0UWykDtlLXzyy71ekk8yiYBdevGadUg/9oCOAAAAAAAAAAAAAAAAAAAAAAAAAANsHgwLPrlGDzFTVxFDnk+ioxCqdaEJQxT7sZlfeYDt8AAMRAAABlwAAkT/QbXABIAAGXANJeGhZpNlMKO8SWJTQoibZS+84tpESf6vGA+KgAAAAAAAAAAAAAAAAAAAAAAAAADdFgq2b/spgv3ZSulOnkxTL8Ws4n/5gH04AAZcAAAAAAJE/0G1wASAABlwDU74UCziJPhGws4abome2dg4txdMxuoceYMvvJDTfeQDqGAAAAAAOUkajIiNJGfVVRFUB+zh4giqbKjLtIqgPGdSzGRl94AAAABUB+0svL+Qys/UALacb+XipM+ojUVT9QD8FnAAAAAAH6bbcecS00g1LWokpSXWZn1EA33y+QMWUsnZ6y0LToZPLmJe3TqxWmkIL9EgOAABlwAAAJGX9U3nIAy/qm85AHjv7DoNqte7sAMga3u+YBkDW93zAMv6pvOQDX34VmXFGqu7tU1CYhpKYy99yta/MraLq/wC6A1+AAAAAADwRsCiYwpsYqTdbVjtY3lPyl6wEIm1Q6zSjpWFpOhklSkGR+oB7Tc0mjOYo03U/4X0ksu/r/XmFCDmbMasod1ooeIV8iiqocPsKucj9BgPaOqTMlFQyAfiIiGIJkn4rGPGOjbaflLP0dhdpgJjs6mDmZjooVPYhOMr/ANSuBAPUdeffzxMY+7/W6dO7qAe/J5ahtZTF1hKSQR9DUs6lHmxvuL/yApEAAAAAAM7uHkSbS32WDkTrHTMxdo5eh9HayUQg3P8AQSgG8zx39h0G1Wvd2AGQNb3fMAyBre75gGX9U3nIAy/qm85AGX9U3nIBIAAFeQafZ4gK4AAxEB1T8JLZ9c2wf4WbNN1VJLQQsStVM5NrbdZMvuNTrfcQDV2AAAAAAFAHLnRvkSYqHafIsxGtOci+/rAeuuWytefoX2j/AJHKl/qIwHhXI4NZGSI9xJfztEf6kZAPcb6RKUJiX0vrTmNwk4uMXkM/SA9V2VlFPqioyZ1WrMRIZOiU+RJVPqAfpMpliPlORLtPSlBfoRgPO2xBMGRsQDRKLqUuqz/UB+1KW4rGWozMBwAAAAAAOwmAVIFTzCdsw8bWOzKWY2YOlTqJMM4hB+pxxADcHINPs8QFcAAYiAAAAAAK8g0+zxAVwABiID49hgWeVafBpt9LkpqbEryj9xQriIg/0aMBpwAAAAAAAAAAAAAAAAAAAAAAAAAd0PBgWeXFXnWutSaaty2RIga06lxD6Fl66Qyv1AbN5Bp9niArgADEQAAAZcAAJE/0G1wASAABlwCJbezrVr7Fz+yb1OjncripcuvVivNKbP8A3AP5/VJUhRoWk0qSdDIyoZGA4AAAAAAAAAAAAAAAAAAAAAAABs08E/ZooS7e3Nr8WhzSdsS6vaUMx0n/ANswHdOf6Da4AJAAAy4AAAAAASJ/oNrgAkAADLgABoav0s6iyV9NvLMtNG2zLbRzGHZTSn8JMQvoz9acU/WAwYAAAAAAAAAAAAAAAAAAAAAAAG4XwdNnESHBWs7Gk3iOzyNmExdIyz190LZSfrQwg/uoA7BT/QbXABIAAGXAAAAkZf1TecgDL+qbzkAeO/sOg2q17uwAyBre75gGQNb3fMAy/qm85AGX9U3nIBp9w+JOcqwpbXRKIboGZqmCmDSe3HhW0rV63EOAOvQAAAAAAAAAAAAAAAAAAAAAAAN4eDqyVkbhrv7Pe4OjchbOQHTJx6UeWylbnk/xqUA+ieO/sOg2q17uwAyBre75gGQNb3fMAy/qm85AGX9U3nIAy/qm85AJAAAryDT7PEBXAAGIgADUfftdLhP25vctRN55dlb+0C0TKIZhYpiSxcWwUKTqzZQyttBo6Ikn8UknTOflqAwP4OWEL5iLxPyvHeyAPg5YQvmIvE/K8d7IB4fg/X9eZK335ajfZgHwfr+vMlb78tRvswH7bweL/wB2vRXG3grp14tmY06bsB+/g5YQvmIvE/K8d7IA+DlhC+Yi8T8rx3sgHh+D9f15krfflqN9mAfB+v68yVvvy1G+zAftvB4v/dr0Vxt4K6deLZmNOm7Afv4OWEL5iLxPyvHeyAPg5YQvmIvE/K8d7IB4fg/X9eZK335ajfZgHwfr+vMlb78tRvswH7bweL/3a9FcbeCunXi2ZjTpuwH7+DlhC+Yi8T8rx3sgD4OWEL5iLxPyvHeyAeH4P1/XmSt9+Wo32YDaVgftXoMXESRi9tqbNztt2IQ2ibJUmMTCk4ZNE6S/jkZFWmP8bFxfJQB9/kGn2eICuAAMRAAAAAAFeQafZ4gK4AAxEAAV5Bp9niArgADEQABXkGn2eICuAAMRAAFeQafZ4gK4AAxEAAV5Bp9niArgADEQABXkGn2eICuAAMRAAABlwAAkT/QbXABIAAGXAACRP9BtcAEgAAZcAAJE/wBBtcAEgAAZcAAJE/0G1wASAABlwAAkT/QbXABIAAGXAACRP9BtcAEgAAZcAAAAAAJE/wBBtcAEgAAZcAAJE/0G1wASAABlwAAkT/QbXABIAAGXAACRP9BtcAEgAAZcAAJE/wBBtcAEgAAZcAAJE/0G1wASAABlwAAAJGX9U3nIAy/qm85AOPHhJP5jour6Va93YA5yBre75gGQNb3fMAy/qm85AGX9U3nIBx48JJ/MdF1fSrXu7AHOQNb3fMAyBre75gGX9U3nIAy/qm85AOPHhJP5jour6Va93YA5yBre75gGQNb3fMAy/qm85AGX9U3nIBx48JJ/MdF1fSrXu7AHOQNb3fMAyBre75gGX9U3nIAy/qm85AOPHhJP5jour6Va93YA5yBre75gGQNb3fMAy/qm85AGX9U3nIBx48JJ/MdF1fSrXu7AHOQNb3fMAyBre75gGX9U3nIAy/qm85AGX9U3nIB//9k=;" vertex="1" parent="1">
          <mxGeometry x="95.16000000000001" y="450" width="49.69" height="49.88" as="geometry" />
        </mxCell>
        <mxCell id="SR7ZfWzbSIeHWlyP0vPY-62" value="" style="image;aspect=fixed;html=1;points=[];align=center;fontSize=12;image=img/lib/azure2/networking/DDoS_Protection_Plans.svg;" vertex="1" parent="1">
          <mxGeometry x="270" y="340" width="32.94" height="40" as="geometry" />
        </mxCell>
        <mxCell id="SR7ZfWzbSIeHWlyP0vPY-64" value="" style="image;aspect=fixed;html=1;points=[];align=center;fontSize=12;image=img/lib/azure2/networking/Web_Application_Firewall_Policies_WAF.svg;" vertex="1" parent="1">
          <mxGeometry x="611" y="340" width="40" height="40" as="geometry" />
        </mxCell>
      </root>
    </mxGraphModel>
  </diagram>
</mxfile>
